<svg xmlns="http://www.w3.org/2000/svg" width="453" height="162"><path d="M172.7 16.3c-.5.5.6.4.6.4.5-.5-.6-.4-.6-.4m-2.7.7l1 1-1-1z" fill="#303030"/><path d="M171.7 17.3c-.5.5.6.4.6.4.5-.5-.6-.4-.6-.4z" fill="#909090"/><path d="M173 17l1 1-1-1z" fill="#b2b2b2"/><path d="M174 17l1 1-1-1z" fill="#909090"/><path d="M37 18c1.1 1 1.6 1.3 3 2-1-1.8-1-1.6-3-2z" fill="#717171"/><path d="M168.3 18.7s0 1 .4.6c0 0 0-1-.4-.6z" fill="#303030"/><path d="M169.7 18.3c-.5.5.6.4.6.4.5-.5-.6-.4-.6-.4z" fill="#b2b2b2"/><path d="M145 40l12-7c1.5 8.2.8 16.7 2 25h4l-4 1c.6 2.4 1 4.5 1 7-1-1.5-.8-1.4-2-2l-2 9 2-1-1 5c1.3-.6 1-.1 1-2 .7 3.4 1.3 8-2 10l3 10c-3.8.8-3.7 5.2 0 6-3.2 4.6-2.2 11.5-3.2 17-.9 4.9-4 9-6.8 13h10a7 7 0 0 0-3-1c.4-2 .4-2 0-4l6 1a12 12 0 0 0-2 3c5.5-1 13.4.7 18-2a14 14 0 0 0 6 3c-1-3.1-3.7-3.8-5-7-1-2.4-1.2-5.6-2-8l1-1c-.9-3-4-6.9-4-10 0-1.9 1.5-.1 2 0-1-2.2-.7-2-3-2v-4l2 1c.3-8.2 1.9-17.5-2-25 6.8-3 4-18.6 4-25 0-3.3-2.8-8.5 1-9a7 7 0 0 0-3-1c1.7-5.5 1.1-7.8-1-13l1 2c1.5-3.6.7-7.2 0-11-5 .6-8 3.2-12 6-6.3 4.6-14.4 9-18 16z" fill="#f8f8f8"/><path d="M175 18l1 3a7 7 0 0 0 1-3h-2z" fill="#303030"/><path d="M214 18l1 1-1-1z" fill="#505050"/><path d="M36.3 19.7s0 1 .4.6c0 0 0-1-.4-.6z" fill="#b2b2b2"/><path d="M37 19c-3.5 9.6-2.2 20.8-3.2 31-1.7 18.7-4.1 37.3-4.7 56-.3 10.4 2.4 27.6-9.1 32 4.2 2.5 8.2 3.4 13 2 2.1 2.4 5 2 8 2-5.8-11.3-4-23.6-4-36 3.5-.3 6.6-1 10-2 1 11.7 5.5 23 4.2 35-.4 3.5-2.1 6.7-3.2 10 6.3 1.2 12.8-2.7 19-4-10-12.4-11-26-13.5-41.2-4.6-28-4.8-58-14.5-84.8h-2z" fill="#f8f8f8"/><path d="M173 19l1 1-1-1z" fill="#b2b2b2"/><path d="M175.3 19.7s0 1 .4.6c0 0 0-1-.4-.6M213 19l-2 4c2.1.9 2.1.9 3 3 .6-2 .3-2.3-1-4a12 12 0 0 0 2-3h-2z" fill="#d0d0d0"/><path d="M39.3 20.7s0 1 .4.6c0 0 0-1-.4-.6z" fill="#b2b2b2"/><path d="M167 20l1 1-1-1z" fill="#717171"/><path d="M212 20l1 1-1-1z" fill="#505050"/><path d="M215 20v33h4a7 7 0 0 0-3-1V32c0-4 .6-8.3-1-12z" fill="#303030"/><path d="M166 21l1 1-1-1z" fill="#505050"/><path d="M176 21v6c1-2.3 1-3.7 0-6m35 0l1 1-1-1m2 0c.5 1.6.4 1.5 2 2v-2h-2z" fill="#717171"/><path d="M34 22v3c.7-1.6.7-1.4 0-3z" fill="#505050"/><path d="M35 22l1 1-1-1m5 0l1 1-1-1z" fill="#b2b2b2"/><path d="M165 22l1 1-1-1z" fill="#505050"/><path d="M172 22l1 1-1-1z" fill="#909090"/><path d="M71 23c1.8.8 3 1 5 1-1.8-.8-3-1-5-1z" fill="#303030"/><path d="M76.7 23.3c-.5.5.6.4.6.4.5-.5-.6-.4-.6-.4z" fill="#505050"/><path d="M78.7 23.3c-.5.5.6.4.6.4.5-.5-.6-.4-.6-.4z" fill="#909090"/><path d="M80.7 23.3c-.5.5.6.4.6.4.5-.5-.6-.4-.6-.4z" fill="#717171"/><path d="M80 24c1.8.8 3 1 5 1-2-1.1-2.7-1.2-5-1z" fill="#d0d0d0"/><path d="M83 23c1.2.7 1.5.7 3 1a7.1 7.1 0 0 0-3-1m5.7.3c-.5.5.6.4.6.4.5-.5-.6-.4-.6-.4z" fill="#303030"/><path d="M91 23c1.5 4.8 2 9 2 14 2-4.6 1.4-10.3-2-14z" fill="#909090"/><path d="M205 33c-5.2 2.3-6 6.5-10 10l1 2a30 30 0 0 0-10.8 12c-1 1.7-2.4 4.3-.6 6 4 3.4 14.6.1 19.4 0 .2 4.1-.2 8 1 12-2.8 2.4-3.4 9.4-3 13h-2c-.6 8.7-.8 19.8-4 28h2a19.2 19.2 0 0 0-5 9l-4 2c4 1.3 8-1.3 12-2a61.5 61.5 0 0 1 21 0c-.6-5-3.5-9.2-5-14-2.1-6.5-.7-13.3-1.2-20-.4-5.8-2.2-11.1-1.9-17 .2-3.1-.8-7.8 1.1-10.6 2.2-3.1 7.6-2.6 11-2.4a24 24 0 0 0 1-10c-2.8.8-3.6 1.5-5 4-2.6-1.8-4-1.8-7-1a53.2 53.2 0 0 1 0-25h-2c.6-2.1 1-3.8 1-6-5.1.9-8.5 4.9-9 10z" fill="#f8f8f8"/><path d="M41 24l1 1-1-1z" fill="#909090"/><path d="M56 24l1 1-1-1z" fill="#303030"/><path d="M57 24l1 1-1-1z" fill="#717171"/><path d="M58 24c1.5.7 2.3.8 4 1-1.5-.7-2.3-.8-4-1z" fill="#d0d0d0"/><path d="M62 24l1 1-1-1z" fill="#909090"/><path d="M63.7 24.3c-.5.5.6.4.6.4.5-.5-.6-.4-.6-.4z" fill="#b2b2b2"/><path d="M65 24c2.6 1.1 5.2 1 8 1-2.6-1.1-5.2-1-8-1z" fill="#d0d0d0"/><path d="M52 48c1.8-4.1 4.1-18.2 11.8-14.8 4.4 2 4.4 12.7 4.8 16.8C70.1 65.8 73 82.1 71 98c3.4 3.9 1.1 6.5.3 11-1.3 6.6-.3 14.2-.3 21 0 3.1-.4 5.9 2 8-3.5 2.8-.8 6.7-3 11-1 1.8-2 .2-3 2-1.1 2 1.8 2.3 3 3l-1 1a7 7 0 0 0 2-3 46 46 0 0 0 16-2c-1.5-.7-2.3-.8-4-1a6.4 6.4 0 0 1 3-2c-7-13.6-5.6-28-6.2-42.8-.6-13.4-2.2-26.8-2.8-40.2-.4-8-4-21.4.3-28.9 5.3-9 13.3 2.5 14.7 7.9 1-2.3 1-4.5 1-7 0-2.7.7-7-1-9.4-1.8-2.3-5.5-2-8-2-5.7 0-11.3.2-17 .4-4.5 0-15.2-1.1-18 3.4-1.1 2 0 4.6.6 6.6 1.2 4.3 1.6 8.7 2.4 13z" fill="#f8f8f8"/><path d="M77.7 24.3c-.5.5.6.4.6.4.5-.5-.6-.4-.6-.4z" fill="#b2b2b2"/><path d="M87 24l1 1-1-1z" fill="#717171"/><path d="M88.7 24.3c-.5.5.6.4.6.4.5-.5-.6-.4-.6-.4z" fill="#b2b2b2"/><path d="M161 24l1 1-1-1z" fill="#303030"/><path d="M162 24l1 1-1-1z" fill="#b2b2b2"/><path d="M209 24l1 1-1-1z" fill="#717171"/><path d="M34.3 25.7s0 1 .4.6c0 0 0-1-.4-.6m8 0s0 1 .4.6c0 0 0-1-.4-.6z" fill="#909090"/><path d="M52.7 25.3c-.5.5.6.4.6.4.5-.5-.6-.4-.6-.4z" fill="#303030"/><path d="M54 25l1 1-1-1z" fill="#717171"/><path d="M55.7 25.3c-.5.5.6.4.6.4.5-.5-.6-.4-.6-.4z" fill="#b2b2b2"/><path d="M160 25l1 1-1-1z" fill="#505050"/><path d="M161 25l1 1-1-1z" fill="#d0d0d0"/><path d="M208 25l1 1-1-1z" fill="#717171"/><path d="M49 26l1 1-1-1z" fill="#303030"/><path d="M50 26l1 1-1-1m109 0l1 1-1-1z" fill="#909090"/><path d="M207 26l1 1-1-1z" fill="#717171"/><path d="M214 26l-1 3c1.8-1 2-1.2 1-3z" fill="#b2b2b2"/><path d="M34 27l1 1-1-1z" fill="#505050"/><path d="M48 27l1 1-1-1m109 0l1 1-1-1z" fill="#909090"/><path d="M174 27a18 18 0 0 0 2 5c.8-1.8 1-3 1-5-1.6 1-1.5 1.1-3 0z" fill="#b2b2b2"/><path d="M206 27l1 1-1-1z" fill="#505050"/><path d="M43 28l1 1-1-1z" fill="#303030"/><path d="M47 28v3c.7-1.6.7-1.4 0-3z" fill="#505050"/><path d="M155 28l1 1-1-1M34 29l1 1-1-1m9 0l1 1-1-1z" fill="#717171"/><path d="M154 29l1 1-1-1z" fill="#505050"/><path d="M165.7 29.3c-.5.5.6.4.6.4.5-.5-.6-.4-.6-.4z" fill="#d0d0d0"/><path d="M205 29l1 1-1-1M50 30l1 1-1-1z" fill="#b2b2b2"/><path d="M153 30l1 1-1-1z" fill="#505050"/><path d="M204 30l1 1-1-1z" fill="#909090"/><path d="M214 30c-1.2 7.5 0 15.5 0 23a39.5 39.5 0 0 0 0-23z" fill="#d0d0d0"/><path d="M43 31l1 1-1-1z" fill="#909090"/><path d="M151.7 31.3c-.5.5.6.4.6.4.5-.5-.6-.4-.6-.4z" fill="#303030"/><path d="M153 31l1 1-1-1z" fill="#d0d0d0"/><path d="M159 31l1 1-1-1z" fill="#505050"/><path d="M203.3 31.7s0 1 .4.6c0 0 0-1-.4-.6z" fill="#909090"/><path d="M34 32l1 1-1-1z" fill="#505050"/><path d="M48 32l1 1-1-1z" fill="#717171"/><path d="M61.7 32.3c-.5.5.6.4.6.4.5-.5-.6-.4-.6-.4z" fill="#d0d0d0"/><path d="M57 34c2.9.7 6-.1 9 0-3-2-5.7-1.1-9 0z" fill="#b2b2b2"/><path d="M78.7 32.3c-.5.5.6.4.6.4.5-.5-.6-.4-.6-.4z" fill="#717171"/><path d="M151 32l1 1-1-1z" fill="#909090"/><path d="M202 32l1 1-1-1z" fill="#505050"/><path d="M204 32l1 1-1-1z" fill="#d0d0d0"/><path d="M207 32l1 1-1-1z" fill="#b2b2b2"/><path d="M208 32l1 1-1-1z" fill="#303030"/><path d="M34 33c.4 2 .2 2 2 3-.7-1.4-1-1.9-2-3z" fill="#d0d0d0"/><path d="M44.3 33.7s0 1 .4.6c0 0 0-1-.4-.6z" fill="#303030"/><path d="M49.3 33.7s0 1 .4.6c0 0 0-1-.4-.6z" fill="#d0d0d0"/><path d="M63 33l1 1-1-1z" fill="#717171"/><path d="M64 33l1 1-1-1z" fill="#303030"/><path d="M77 33l1 1-1-1z" fill="#b2b2b2"/><path d="M149 33l1 1-1-1z" fill="#303030"/><path d="M150 33l1 1-1-1z" fill="#d0d0d0"/><path d="M155 33l1 1-1-1z" fill="#909090"/><path d="M202 33l1 1-1-1z" fill="#b2b2b2"/><path d="M207 33c-6 8.7-13.5 17.5-18 27 4.7-1 9.2-2.8 14-3 2.6-5.5 6.3-18.2 4-24z" fill="#010101"/><path d="M208.3 33.7s0 1 .4.6c0 0 0-1-.4-.6M59 34l1 1-1-1m6 0l1 1-1-1m12 0l1 1-1-1m11 0l1 1-1-1z" fill="#505050"/><path d="M148 34l1 1-1-1z" fill="#717171"/><path d="M149 34l1 1-1-1m4 0l1 1-1-1z" fill="#d0d0d0"/><path d="M157 34v4c.7-1.8.7-2.2 0-4z" fill="#b2b2b2"/><path d="M177.3 34.7s0 1 .4.6c0 0 0-1-.4-.6z" fill="#303030"/><path d="M200 34l-1 2c1.3-1 1.4-.7 1-2z" fill="#505050"/><path d="M201 34l1 1-1-1z" fill="#909090"/><path d="M44 35l1 1-1-1z" fill="#717171"/><path d="M49 35l1 1-1-1z" fill="#909090"/><path d="M65 35l1 5c1-2.3.9-3.4-1-5z" fill="#b2b2b2"/><path d="M147 35l1 1-1-1z" fill="#505050"/><path d="M148 35l1 1-1-1z" fill="#d0d0d0"/><path d="M151 35l1 1-1-1z" fill="#b2b2b2"/><path d="M152 35l1 1-1-1z" fill="#303030"/><path d="M165 35v3l2-1c-.5-1.6-.4-1.5-2-2z" fill="#d0d0d0"/><path d="M200 35l1 1-1-1z" fill="#b2b2b2"/><path d="M205 35l1 1-1-1z" fill="#717171"/><path d="M208 35l1 1-1-1z" fill="#b2b2b2"/><path d="M34 36l1 1-1-1z" fill="#909090"/><path d="M44 36v4c.7-1.8.7-2.2 0-4m5 0l1 1-1-1z" fill="#d0d0d0"/><path d="M76 36l1 1-1-1z" fill="#909090"/><path d="M89 36l1 1-1-1z" fill="#505050"/><path d="M146 36l1 1-1-1z" fill="#717171"/><path d="M150 36l1 1-1-1z" fill="#505050"/><path d="M176 36c-.9 2.7-.9 3.4 2 4l-2-4z" fill="#d0d0d0"/><path d="M177.3 36.7s0 1 .4.6c0 0 0-1-.4-.6z" fill="#909090"/><path d="M198 36l1 1-1-1z" fill="#505050"/><path d="M204 36l1 1-1-1z" fill="#d0d0d0"/><path d="M34 37l1 1-1-1z" fill="#303030"/><path d="M35 37l-1 2h2c0-1.9.3-1.4-1-2z" fill="#d0d0d0"/><path d="M49.3 37.7s0 1 .4.6c0 0 0-1-.4-.6z" fill="#909090"/><path d="M55 37l1 1-1-1z" fill="#b2b2b2"/><path d="M65 37l1 1-1-1z" fill="#505050"/><path d="M76 37v4c.7-1.8.7-2.2 0-4z" fill="#303030"/><path d="M90 37v4c.7-1.8.7-2.2 0-4z" fill="#717171"/><path d="M93 37c-.1 2.4-.4 4.6-1 7 1.8-2.4 2.1-4.2 1-7z" fill="#b2b2b2"/><path d="M145 37l1 1-1-1z" fill="#909090"/><path d="M198 37l1 1-1-1z" fill="#b2b2b2"/><path d="M45 38v5c.8-2 .8-3 0-5z" fill="#303030"/><path d="M50.3 38.7s0 1 .4.6c0 0 0-1-.4-.6z" fill="#d0d0d0"/><path d="M144 38l1 1-1-1m32.7.3c-.5.5.6.4.6.4.5-.5-.6-.4-.6-.4M197 38l1 1-1-1z" fill="#717171"/><path d="M203 38l1 1-1-1z" fill="#303030"/><path d="M207.3 38.7s0 1 .4.6c0 0 0-1-.4-.6z" fill="#505050"/><path d="M34.3 39.7s0 1 .4.6c0 0 0-1-.4-.6z" fill="#909090"/><path d="M49 39l1 1-1-1z" fill="#505050"/><path d="M54 39l1 1-1-1z" fill="#d0d0d0"/><path d="M144 39l1 1-1-1z" fill="#b2b2b2"/><path d="M157 39v4c.7-1.8.7-2.2 0-4z" fill="#d0d0d0"/><path d="M196 39l-1 4a18 18 0 0 0 4-4h-3z" fill="#b2b2b2"/><path d="M202 39l1 1-1-1z" fill="#717171"/><path d="M50 40v3c.7-1.6.7-1.4 0-3z" fill="#b2b2b2"/><path d="M54 40l1 1-1-1z" fill="#303030"/><path d="M66 40l1 1-1-1z" fill="#505050"/><path d="M91 40l1 1-1-1m54 0l1 1-1-1z" fill="#b2b2b2"/><path d="M195 40l1 1-1-1z" fill="#303030"/><path d="M201 40l1 1-1-1z" fill="#909090"/><path d="M207 40v3c.7-1.6.7-1.4 0-3z" fill="#717171"/><path d="M65 41l1 1-1-1z" fill="#303030"/><path d="M66 41v2c1.6-.5 1.5-.4 2-2h-2z" fill="#b2b2b2"/><path d="M91 41l1 1-1-1z" fill="#505050"/><path d="M175 41a15 15 0 0 0 2 4c0-2.3-.1-2.7-2-4z" fill="#d0d0d0"/><path d="M177.3 41.7s0 1 .4.6c0 0 0-1-.4-.6z" fill="#b2b2b2"/><path d="M200 41l1 1-1-1z" fill="#d0d0d0"/><path d="M53 42v3c.7-1.6.7-1.4 0-3z" fill="#717171"/><path d="M54 42l1 1-1-1z" fill="#d0d0d0"/><path d="M160 42l1 1-1-1z" fill="#909090"/><path d="M194 42l1 1-1-1m2 0l1 1-1-1M45 43v3c.7-1.6.7-1.4 0-3z" fill="#717171"/><path d="M50 43l1 1-1-1m16 0l1 1-1-1z" fill="#303030"/><path d="M67 43l1 3c.4-1.8.3-1.6-1-3z" fill="#d0d0d0"/><path d="M93 43l1 1-1-1m100 0l1 1-1-1z" fill="#505050"/><path d="M194 43c-1.3 1.8-2.1 3-3 5 2-1.2 3.4-2.4 5-4l-2-1z" fill="#d0d0d0"/><path d="M199 43l1 1-1-1z" fill="#717171"/><path d="M206.3 43.7s0 1 .4.6c0 0 0-1-.4-.6z" fill="#505050"/><path d="M66.7 44.3c-.5.5.6.4.6.4.5-.5-.6-.4-.6-.4z" fill="#909090"/><path d="M76 44v5c.8-2 .8-3 0-5z" fill="#303030"/><path d="M177 44v4c.7-1.8.7-2.2 0-4z" fill="#717171"/><path d="M192 44l1 1-1-1z" fill="#303030"/><path d="M199 44l1 1-1-1z" fill="#d0d0d0"/><path d="M205.3 44.7s0 1 .4.6c0 0 0-1-.4-.6z" fill="#303030"/><path d="M51 45v3c.7-1.6.7-1.4 0-3m2 0v3c.7-1.6.7-1.4 0-3z" fill="#d0d0d0"/><path d="M54.3 45.7s0 1 .4.6c0 0 0-1-.4-.6z" fill="#303030"/><path d="M66.7 45.3c-.5.5.6.4.6.4.5-.5-.6-.4-.6-.4z" fill="#717171"/><path d="M157.3 45.7s0 1 .4.6c0 0 0-1-.4-.6z" fill="#b2b2b2"/><path d="M194 45l1 1-1-1z" fill="#303030"/><path d="M198 45l1 1-1-1z" fill="#909090"/><path d="M206 45l1 1-1-1z" fill="#b2b2b2"/><path d="M33 46v5c.8-2 .8-3 0-5m13 0l1 1-1-1z" fill="#505050"/><path d="M66 46l1 6c.7-2.4.3-3.8-1-6z" fill="#303030"/><path d="M67.3 46.7s0 1 .4.6c0 0 0-1-.4-.6M198 46l1 1-1-1z" fill="#505050"/><path d="M54 47l1 1-1-1z" fill="#717171"/><path d="M68 47c-.2 1.7-.2 2.3 0 4 .7-1.8.7-2.2 0-4z" fill="#b2b2b2"/><path d="M156 47v4c.7-1.8.7-2.2 0-4z" fill="#505050"/><path d="M172 47l1 1-1-1z" fill="#b2b2b2"/><path d="M190 47l1 1-1-1z" fill="#717171"/><path d="M196.3 47.7s0 1 .4.6c0 0 0-1-.4-.6z" fill="#d0d0d0"/><path d="M197 47l1 1-1-1z" fill="#717171"/><path d="M205 47l1 1-1-1M51 48l1 1-1-1z" fill="#303030"/><path d="M52.7 48.3c-.5.5.6.4.6.4.5-.5-.6-.4-.6-.4z" fill="#909090"/><path d="M205.3 48.7s0 1 .4.6c0 0 0-1-.4-.6M46 49l1 1-1-1m30 0v7c1-2.5 1-4.5 0-7z" fill="#505050"/><path d="M189 49c.5 1.6.4 1.5 2 2v-2h-2z" fill="#d0d0d0"/><path d="M196 49l1 1-1-1z" fill="#303030"/><path d="M208 49l1 1-1-1z" fill="#b2b2b2"/><path d="M46.3 50.7s0 1 .4.6c0 0 0-1-.4-.6z" fill="#909090"/><path d="M172.3 50.7s0 1 .4.6c0 0 0-1-.4-.6z" fill="#d0d0d0"/><path d="M188 50c-1 1.5-1 1.2-1 3 1.3-1.4 1.4-1.2 1-3z" fill="#b2b2b2"/><path d="M189 50l1 1-1-1z" fill="#505050"/><path d="M205 50v3c.7-1.6.7-1.4 0-3z" fill="#909090"/><path d="M225 50l1 1-1-1z" fill="#505050"/><path d="M33.3 51.7s0 1 .4.6c0 0 0-1-.4-.6z" fill="#d0d0d0"/><path d="M89.7 51.3c-.5.5.6.4.6.4.5-.5-.6-.4-.6-.4z" fill="#505050"/><path d="M91 51l1 1-1-1z" fill="#909090"/><path d="M92.7 51.3c-.5.5.6.4.6.4.5-.5-.6-.4-.6-.4z" fill="#717171"/><path d="M94 51c1.2.7 1.5.7 3 1a7.1 7.1 0 0 0-3-1z" fill="#505050"/><path d="M97 51c2.8 1.3 5 1.5 8 1-2.6-1.1-5.2-1-8-1z" fill="#d0d0d0"/><path d="M105 51l-1 2h2c0-1.9.3-1.4-1-2z" fill="#b2b2b2"/><path d="M106.7 51.3c-.5.5.6.4.6.4.5-.5-.6-.4-.6-.4z" fill="#717171"/><path d="M108 51l1 1-1-1z" fill="#303030"/><path d="M157 51l1 1-1-1z" fill="#909090"/><path d="M192 51l1 1-1-1z" fill="#d0d0d0"/><path d="M194 51l1 1-1-1z" fill="#505050"/><path d="M223 51l1 1-1-1z" fill="#717171"/><path d="M227 51l1 1-1-1z" fill="#505050"/><path d="M67 52v2h2v-2h-2z" fill="#909090"/><path d="M84 52l1 1-1-1z" fill="#505050"/><path d="M85 52c1.4 2.5 3.8 4.3 5 7 9 21.2 6.1 45.6 6 68 0 5.4-1.6 10.6-1 16a11.7 11.7 0 0 0-5 5c6.3 1.9 14.4 1.9 21 2a8 8 0 0 0-4-2c0-2.3.2-2-2-3 .5-2.2.6-2.6-1-4 2-10 .4-22.6 0-33h3v-4c3.5 3.2 3.7 10.2 9 11-2.6 4.5.8 11.4 5 14 0 2.3.1 2.7 2 4-1 1.5-1 1.2-1 3 1.5 1 1.2 1 3 1-.8 4.7 1.3 9-2 13 2 1.2 9.3.5 6-2 6-2 9.4-3.6 13-9-2.6.2-5.5.8-8-.4-6.2-3-13.6-19-12-25.6-2.2-.7-1.8-.4-1-2-2.6 0-.8-9.4-6-11 .5-1.6.4-1.5 2-2v-2c-2-3.8 1-7.3 2.6-11 4-9 10.2-26.1 20.4-29-5.9-4.5-14.2-2.3-21-2 1.6 2.5 3 2.8 6 3-2.8 3.8-4.3 8.3-6.6 12.4s-5.6 7.8-5.4 12.6c-4.7 1.6-6.9 7.3-10 11 0-11.2 1.8-24.1 0-35 2.2-1.2 3.6-3.8 5-6-7.3 1-15.6.3-23 0z" fill="#f8f8f8"/><path d="M89.7 52.3c-.5.5.6.4.6.4.5-.5-.6-.4-.6-.4z" fill="#d0d0d0"/><path d="M108 52l1 1-1-1z" fill="#909090"/><path d="M123 52c1.8.8 3 1 5 1-1.8-.8-3-1-5-1z" fill="#303030"/><path d="M128 52a7 7 0 0 0 3 1 7 7 0 0 0-3-1z" fill="#717171"/><path d="M157 52l1 1-1-1z" fill="#b2b2b2"/><path d="M193 52l1 1-1-1z" fill="#717171"/><path d="M219 52l1 1-1-1z" fill="#505050"/><path d="M220 52l1 1-1-1z" fill="#b2b2b2"/><path d="M221 52v3c1-1.1 1.3-1.6 2-3h-2z" fill="#d0d0d0"/><path d="M227 52l1 1-1-1z" fill="#909090"/><path d="M228 52l1 1-1-1z" fill="#303030"/><path d="M107 53l1 1-1-1z" fill="#d0d0d0"/><path d="M108 53l1 1-1-1z" fill="#303030"/><path d="M118.7 53.3c-.5.5.6.4.6.4.5-.5-.6-.4-.6-.4z" fill="#b2b2b2"/><path d="M120 53c1.8.8 3 1 5 1-1.8-.8-3-1-5-1m12 0a7 7 0 0 0 3 1 7 7 0 0 0-3-1z" fill="#d0d0d0"/><path d="M135.7 53.3c-.5.5.6.4.6.4.5-.5-.6-.4-.6-.4z" fill="#717171"/><path d="M137 53l1 1-1-1z" fill="#909090"/><path d="M138 53l1 1-1-1m18 0v2c1.6-.5 1.5-.4 2-2h-2z" fill="#717171"/><path d="M205 53l1 1-1-1z" fill="#b2b2b2"/><path d="M215 53l1 1-1-1z" fill="#717171"/><path d="M32 54v3c.7-1.6.7-1.4 0-3z" fill="#b2b2b2"/><path d="M47 54v3c.7-1.6.7-1.4 0-3z" fill="#303030"/><path d="M67 54c1 1.7 1.5 3 2 5 .8-1.8 1-3 1-5h-3m31 2a7 7 0 0 0 3-2c-2 .4-2 .2-3 2m8-2l1 1-1-1z" fill="#d0d0d0"/><path d="M118 54l1 1-1-1z" fill="#717171"/><path d="M139 54l1 1-1-1z" fill="#909090"/><path d="M157 54l1 6 5-1c-1.5-.7-2.3-.8-4-1-.3-2.1-.4-2.7-2-4m19.3.7s0 1 .4.6c0 0 0-1-.4-.6z" fill="#d0d0d0"/><path d="M186.3 54.7s0 1 .4.6c0 0 0-1-.4-.6z" fill="#b2b2b2"/><path d="M204.3 54.7s0 1 .4.6c0 0 0-1-.4-.6z" fill="#303030"/><path d="M227.3 54.7s0 1 .4.6c0 0 0-1-.4-.6z" fill="#505050"/><path d="M67 55c.5 1.6.4 1.5 2 2v-2h-2m38 0l1 1-1-1z" fill="#b2b2b2"/><path d="M118 55l1 1-1-1z" fill="#303030"/><path d="M156.3 55.7s0 1 .4.6c0 0 0-1-.4-.6z" fill="#505050"/><path d="M185 55l1 1-1-1z" fill="#717171"/><path d="M191 55l1 1-1-1z" fill="#303030"/><path d="M76 56v4c.7-1.8.7-2.2 0-4z" fill="#909090"/><path d="M89 56l-1 2c1.3-1 1.4-.7 1-2z" fill="#303030"/><path d="M104 56l1 1-1-1m15 0l1 1-1-1z" fill="#b2b2b2"/><path d="M136 56l1 1-1-1z" fill="#717171"/><path d="M137 56l1 1-1-1z" fill="#303030"/><path d="M157.3 56.7s0 1 .4.6c0 0 0-1-.4-.6z" fill="#717171"/><path d="M184.3 56.7s0 1 .4.6c0 0 0-1-.4-.6z" fill="#505050"/><path d="M185 56l1 1-1-1z" fill="#d0d0d0"/><path d="M190 56l1 1-1-1z" fill="#b2b2b2"/><path d="M200.7 56.3c-.5.5.6.4.6.4.5-.5-.6-.4-.6-.4z" fill="#303030"/><path d="M203 56l1 1-1-1z" fill="#717171"/><path d="M204 56l1 1-1-1z" fill="#b2b2b2"/><path d="M227.3 56.7s0 1 .4.6c0 0 0-1-.4-.6z" fill="#717171"/><path d="M31 57l1 4c.4-2 .1-2.4-1-4z" fill="#303030"/><path d="M32.3 57.7s0 1 .4.6c0 0 0-1-.4-.6z" fill="#909090"/><path d="M47 57l1 1-1-1z" fill="#505050"/><path d="M68 57a7 7 0 0 0 2 3c-.7-1.4-1-1.9-2-3z" fill="#717171"/><path d="M89.3 57.7s0 1 .4.6c0 0 0-1-.4-.6z" fill="#909090"/><path d="M121 57l1 1-1-1z" fill="#505050"/><path d="M122 57a7 7 0 0 0 3 1 7 7 0 0 0-3-1z" fill="#d0d0d0"/><path d="M135 57l1 1-1-1m63 0l1 1-1-1z" fill="#505050"/><path d="M199 57l1 1-1-1z" fill="#909090"/><path d="M200 57a7 7 0 0 0 3 1 7 7 0 0 0-3-1M33 58l1 1-1-1z" fill="#d0d0d0"/><path d="M47 58v3c.7-1.6.7-1.4 0-3z" fill="#909090"/><path d="M103 58l1 1-1-1z" fill="#b2b2b2"/><path d="M104.3 58.7s0 1 .4.6c0 0 0-1-.4-.6z" fill="#505050"/><path d="M134 58l1 1-1-1z" fill="#717171"/><path d="M157 58c.4 2 .2 2 2 3-.7-1.4-1-1.9-2-3z" fill="#909090"/><path d="M183 58l1 1-1-1z" fill="#505050"/><path d="M189 58l1 1-1-1m6.7.3c-.5.5.6.4.6.4.5-.5-.6-.4-.6-.4z" fill="#909090"/><path d="M197 58l1 1-1-1z" fill="#d0d0d0"/><path d="M227.3 58.7s0 1 .4.6c0 0 0-1-.4-.6z" fill="#909090"/><path d="M31 59v3c.7-1.6.7-1.4 0-3z" fill="#505050"/><path d="M68.3 59.7s0 1 .4.6c0 0 0-1-.4-.6M89 59l1 1-1-1z" fill="#303030"/><path d="M123 59l1 1-1-1z" fill="#b2b2b2"/><path d="M133 59l1 1-1-1z" fill="#505050"/><path d="M156.3 59.7s0 1 .4.6c0 0 0-1-.4-.6z" fill="#717171"/><path d="M182.3 59.7s0 1 .4.6c0 0 0-1-.4-.6z" fill="#303030"/><path d="M183 59l1 1-1-1z" fill="#b2b2b2"/><path d="M191.7 59.3c-.5.5.6.4.6.4.5-.5-.6-.4-.6-.4z" fill="#303030"/><path d="M193 59l1 1-1-1z" fill="#b2b2b2"/><path d="M228 59l1 1-1-1z" fill="#505050"/><path d="M89 60l1 1-1-1m33 0l1 1-1-1z" fill="#717171"/><path d="M132 60l1 1-1-1z" fill="#b2b2b2"/><path d="M188 60l1 1-1-1z" fill="#717171"/><path d="M189 60l1 1-1-1z" fill="#d0d0d0"/><path d="M224 60l1 1-1-1z" fill="#b2b2b2"/><path d="M226 60l-1 2c1.3-1 1.4-.7 1-2z" fill="#717171"/><path d="M32 61l1 1-1-1z" fill="#b2b2b2"/><path d="M69.3 61.7s0 1 .4.6c0 0 0-1-.4-.6z" fill="#717171"/><path d="M90 61l1 1-1-1z" fill="#b2b2b2"/><path d="M103 61l1 1-1-1m19 0l1 1-1-1z" fill="#909090"/><path d="M156 61l1 4c1.7-.2 1.5-.5 2 1a15 15 0 0 0 2-4c-1.8-.6-3.1-.8-5-1z" fill="#d0d0d0"/><path d="M177 61l1 1-1-1z" fill="#303030"/><path d="M181 61l1 1-1-1z" fill="#505050"/><path d="M182 61c-.2 1.7-.2 2.3 0 4 .7-1.8.7-2.2 0-4z" fill="#b2b2b2"/><path d="M216 61a7 7 0 0 0 3 1 7 7 0 0 0-3-1z" fill="#909090"/><path d="M219 61l1 1-1-1z" fill="#505050"/><path d="M226 61l1 1-1-1M31.3 62.7s0 1 .4.6c0 0 0-1-.4-.6z" fill="#303030"/><path d="M91 62l1 1-1-1m30 0l1 1-1-1m10 0l1 1-1-1z" fill="#909090"/><path d="M180 62v3c.7-1.6.7-1.4 0-3z" fill="#303030"/><path d="M214 62v5c.8-2 .8-3 0-5z" fill="#717171"/><path d="M32 63l-1 2h2c0-1.9.3-1.4-1-2z" fill="#909090"/><path d="M48.3 63.7s0 1 .4.6c0 0 0-1-.4-.6z" fill="#717171"/><path d="M69 63v3c.7-1.6.7-1.4 0-3z" fill="#505050"/><path d="M70 63v3c.7-1.6.7-1.4 0-3z" fill="#d0d0d0"/><path d="M103 63l1 1-1-1z" fill="#505050"/><path d="M130.3 63.7s0 1 .4.6c0 0 0-1-.4-.6M156 63v3c.7-1.6.7-1.4 0-3z" fill="#717171"/><path d="M171.7 63.3c-.5.5.6.4.6.4.5-.5-.6-.4-.6-.4z" fill="#d0d0d0"/><path d="M177.3 63.7s0 1 .4.6c0 0 0-1-.4-.6m4 0s0 1 .4.6c0 0 0-1-.4-.6z" fill="#505050"/><path d="M183 63c1 1.8 1 1.6 3 2-1.1-1-1.6-1.3-3-2z" fill="#d0d0d0"/><path d="M197 63l1 1-1-1z" fill="#717171"/><path d="M198 63l1 1-1-1z" fill="#303030"/><path d="M199 63c1.8.8 3 1 5 1-1.8-.8-3-1-5-1z" fill="#717171"/><path d="M77.3 64.7s0 1 .4.6c0 0 0-1-.4-.6m14 0s0 1 .4.6c0 0 0-1-.4-.6z" fill="#505050"/><path d="M103 64v3c.7-1.6.7-1.4 0-3z" fill="#303030"/><path d="M120 64l1 1-1-1z" fill="#717171"/><path d="M186.7 64.3c-.5.5.6.4.6.4.5-.5-.6-.4-.6-.4z" fill="#b2b2b2"/><path d="M188 64l1 1-1-1z" fill="#717171"/><path d="M189 64l1 1-1-1z" fill="#505050"/><path d="M190 64l1 1-1-1z" fill="#717171"/><path d="M191 64c1.5.7 2.3.8 4 1-1.5-.7-2.3-.8-4-1M31 65l1 1-1-1z" fill="#303030"/><path d="M48 65l1 1-1-1m128 0l1 1-1-1z" fill="#b2b2b2"/><path d="M177 65l1 1-1-1z" fill="#717171"/><path d="M203 65l1 1-1-1z" fill="#505050"/><path d="M31 66v3c.7-1.6.7-1.4 0-3z" fill="#717171"/><path d="M70 66v6c1-2.3 1-3.7 0-6z" fill="#b2b2b2"/><path d="M77 66l1 1-1-1z" fill="#909090"/><path d="M92 66l1 1-1-1z" fill="#d0d0d0"/><path d="M119 66l1 1-1-1z" fill="#717171"/><path d="M129 66l1 1-1-1z" fill="#b2b2b2"/><path d="M156.7 66.3c-.5.5.6.4.6.4.5-.5-.6-.4-.6-.4m2.3.7c1.8.5 3 .3 5 0-2-.8-2.8-.6-5 0z" fill="#d0d0d0"/><path d="M203.7 66.3c-.5.5.6.4.6.4.5-.5-.6-.4-.6-.4z" fill="#b2b2b2"/><path d="M39 67c.4 2 .2 2 2 3-.7-1.4-1-1.9-2-3m38 0v6c1-2.3 1-3.7 0-6z" fill="#d0d0d0"/><path d="M118 67l1 1-1-1z" fill="#505050"/><path d="M119.3 67.7s0 1 .4.6c0 0 0-1-.4-.6m8.7-.7l1 1-1-1z" fill="#d0d0d0"/><path d="M156 67v3c1-1.1 1.3-1.6 2-3h-2z" fill="#505050"/><path d="M177 67l1 1-1-1m26 0l1 1-1-1z" fill="#303030"/><path d="M214 67l1 1-1-1z" fill="#909090"/><path d="M103 68v11a15 15 0 0 0 0-11z" fill="#303030"/><path d="M118 68l1 1-1-1z" fill="#717171"/><path d="M128 68l1 1-1-1z" fill="#505050"/><path d="M157 68l1 1-1-1z" fill="#b2b2b2"/><path d="M163.3 68.7s0 1 .4.6c0 0 0-1-.4-.6z" fill="#d0d0d0"/><path d="M177 68l1 1-1-1m26.3.7s0 1 .4.6c0 0 0-1-.4-.6z" fill="#717171"/><path d="M214 68v3c.7-1.6.7-1.4 0-3z" fill="#303030"/><path d="M31.3 69.7s0 1 .4.6c0 0 0-1-.4-.6z" fill="#b2b2b2"/><path d="M93.3 69.7s0 1 .4.6c0 0 0-1-.4-.6z" fill="#909090"/><path d="M40 70l1 1-1-1z" fill="#717171"/><path d="M78 70v7c1-2.5 1-4.5 0-7z" fill="#303030"/><path d="M117 70l1 1-1-1z" fill="#717171"/><path d="M127 70l1 1-1-1z" fill="#505050"/><path d="M156 70l1 1-1-1z" fill="#909090"/><path d="M202.3 70.7s0 1 .4.6c0 0 0-1-.4-.6z" fill="#505050"/><path d="M203 70c.2 2.4.2 3.5 2 5-.6-1.8-1-3.4-2-5z" fill="#d0d0d0"/><path d="M40 71a7 7 0 0 0 2 3 7 7 0 0 0-2-3z" fill="#b2b2b2"/><path d="M49 71v4c.7-1.8.7-2.2 0-4m44.3.7s0 1 .4.6c0 0 0-1-.4-.6z" fill="#505050"/><path d="M126 71l1 1-1-1z" fill="#b2b2b2"/><path d="M159.3 71.7s0 1 .4.6c0 0 0-1-.4-.6z" fill="#909090"/><path d="M176 71v3c.7-1.6.7-1.4 0-3z" fill="#b2b2b2"/><path d="M214 71l1 1-1-1z" fill="#909090"/><path d="M70.3 72.7s0 1 .4.6c0 0 0-1-.4-.6z" fill="#717171"/><path d="M116.3 72.7s0 1 .4.6c0 0 0-1-.4-.6z" fill="#d0d0d0"/><path d="M126 72l1 1-1-1z" fill="#303030"/><path d="M157.3 72.7s0 1 .4.6c0 0 0-1-.4-.6z" fill="#909090"/><path d="M171 72l1 1-1-1z" fill="#b2b2b2"/><path d="M177 72v5c.8-2 .8-3 0-5m37 0v3c.7-1.6.7-1.4 0-3z" fill="#505050"/><path d="M39 75h3l-1-2c-1.6.5-1.5.4-2 2m76-2l1 1-1-1z" fill="#717171"/><path d="M125 73l1 1-1-1z" fill="#b2b2b2"/><path d="M156 73l1 1-1-1z" fill="#505050"/><path d="M202.3 73.7s0 1 .4.6c0 0 0-1-.4-.6z" fill="#909090"/><path d="M31 74l1 1-1-1z" fill="#b2b2b2"/><path d="M94 74l1 1-1-1z" fill="#909090"/><path d="M156 74v3c.7-1.6.7-1.4 0-3z" fill="#b2b2b2"/><path d="M174 74l-1 1 3 7c1.4-3.4 1-5.9-2-8z" fill="#d0d0d0"/><path d="M175.7 74.3c-.5.5.6.4.6.4.5-.5-.6-.4-.6-.4z" fill="#909090"/><path d="M30 75l1 1-1-1m10.7.3c-.5.5.6.4.6.4.5-.5-.6-.4-.6-.4z" fill="#505050"/><path d="M49.3 75.7s0 1 .4.6c0 0 0-1-.4-.6z" fill="#b2b2b2"/><path d="M70 75v3c.7-1.6.7-1.4 0-3z" fill="#717171"/><path d="M114.3 75.7s0 1 .4.6c0 0 0-1-.4-.6z" fill="#909090"/><path d="M124 75l1 1-1-1z" fill="#717171"/><path d="M158.3 75.7s0 1 .4.6c0 0 0-1-.4-.6z" fill="#b2b2b2"/><path d="M202 75v3c.7-1.6.7-1.4 0-3M30 76v3c.7-1.6.7-1.4 0-3z" fill="#717171"/><path d="M31 76l1 1-1-1z" fill="#b2b2b2"/><path d="M39 76l1 1-1-1z" fill="#d0d0d0"/><path d="M40 76c0 8.4-.4 16.7-2 25 12.3-2 4.7-16.3 4-25h-2z" fill="#010101"/><path d="M42 76l1 1-1-1z" fill="#b2b2b2"/><path d="M94.3 76.7s0 1 .4.6c0 0 0-1-.4-.6z" fill="#505050"/><path d="M124 76l1 1-1-1z" fill="#303030"/><path d="M155 76l1 1-1-1z" fill="#505050"/><path d="M214 76v3c.7-1.6.7-1.4 0-3z" fill="#717171"/><path d="M50 77v4c.7-1.8.7-2.2 0-4z" fill="#303030"/><path d="M78 77l1 1-1-1z" fill="#909090"/><path d="M113 77l1 1-1-1z" fill="#505050"/><path d="M123 77l1 1-1-1z" fill="#b2b2b2"/><path d="M156.7 77.3c-.5.5.6.4.6.4.5-.5-.6-.4-.6-.4z" fill="#909090"/><path d="M158 77l-2 1c1.5.8 2.8.9 2-1m55 0a22 22 0 0 0 1 5c.7-2.2.3-3-1-5z" fill="#d0d0d0"/><path d="M39 78v5c.8-2 .8-3 0-5z" fill="#b2b2b2"/><path d="M42 78l1 1-1-1z" fill="#909090"/><path d="M70 78l1 1-1-1z" fill="#303030"/><path d="M78 78l1 1-1-1z" fill="#505050"/><path d="M122 78l1 1-1-1z" fill="#909090"/><path d="M171.3 78.7s0 1 .4.6c0 0 0-1-.4-.6M203 78l1 1-1-1z" fill="#b2b2b2"/><path d="M30 79l1 1-1-1z" fill="#303030"/><path d="M42.3 79.7s0 1 .4.6c0 0 0-1-.4-.6z" fill="#505050"/><path d="M70 79v6c1-2.3 1-3.7 0-6z" fill="#717171"/><path d="M78.3 79.7s0 1 .4.6c0 0 0-1-.4-.6M95 79l1 1-1-1z" fill="#909090"/><path d="M103 79v7c1-2.5 1-4.5 0-7m19 0l1 1-1-1z" fill="#505050"/><path d="M155 79v7c1.5-2.5 1.2-4.4 0-7z" fill="#303030"/><path d="M156 79c.9 2.1.9 2.1 3 3-1-2-1-2.1-3-3z" fill="#909090"/><path d="M202 79l1 1-1-1z" fill="#717171"/><path d="M207.7 79.3c-.5.5.6.4.6.4.5-.5-.6-.4-.6-.4M30 80c0 3.4-.4 6.7 0 10 1.3-3.2 1.3-6.8 0-10z" fill="#d0d0d0"/><path d="M111 80l1 1-1-1z" fill="#505050"/><path d="M121.3 80.7s0 1 .4.6c0 0 0-1-.4-.6z" fill="#717171"/><path d="M202 80l1 1-1-1z" fill="#b2b2b2"/><path d="M208 80l1 1-1-1M50 81v3c.7-1.6.7-1.4 0-3z" fill="#909090"/><path d="M78.3 81.7s0 1 .4.6c0 0 0-1-.4-.6M95 81v3c.7-1.6.7-1.4 0-3z" fill="#b2b2b2"/><path d="M111.7 81.3c-.5.5.6.4.6.4.5-.5-.6-.4-.6-.4z" fill="#d0d0d0"/><path d="M156.3 81.7s0 1 .4.6c0 0 0-1-.4-.6z" fill="#f8f8f8"/><path d="M165 81l1 4c.4-2 .1-2.4-1-4z" fill="#b2b2b2"/><path d="M201 81c.5 1.6.4 1.5 2 2v-2h-2z" fill="#717171"/><path d="M211 81l1 1-1-1z" fill="#d0d0d0"/><path d="M29 82v4c.7-1.8.7-2.2 0-4z" fill="#303030"/><path d="M120 82l1 1-1-1m37 0l-1 1a7 7 0 0 0 3 2 7 7 0 0 0-2-3z" fill="#b2b2b2"/><path d="M175.7 82.3c-.5.5.6.4.6.4.5-.5-.6-.4-.6-.4z" fill="#505050"/><path d="M201 82l1 1-1-1z" fill="#303030"/><path d="M213 82l1 1-1-1M38 83c0 2.5.3 4.6 1 7 1-2.3 1-4.5 1-7h-2z" fill="#909090"/><path d="M43 83v3c.7-1.6.7-1.4 0-3z" fill="#d0d0d0"/><path d="M109 83l1 1-1-1z" fill="#505050"/><path d="M120 83l1 1-1-1z" fill="#717171"/><path d="M175 83a7 7 0 0 0 2 3v-3h-2z" fill="#d0d0d0"/><path d="M201.3 83.7s0 1 .4.6c0 0 0-1-.4-.6z" fill="#909090"/><path d="M212.3 83.7s0 1 .4.6c0 0 0-1-.4-.6z" fill="#d0d0d0"/><path d="M215 83v3c.7-1.6.7-1.4 0-3z" fill="#303030"/><path d="M95.3 84.7s0 1 .4.6c0 0 0-1-.4-.6z" fill="#717171"/><path d="M108 85l1 1-1-1z" fill="#909090"/><path d="M200 85v3c.7-1.6.7-1.4 0-3z" fill="#505050"/><path d="M29.3 86.7s0 1 .4.6c0 0 0-1-.4-.6M43 86l1 1-1-1z" fill="#717171"/><path d="M51 86l1 1-1-1m44 0v5c.8-2 .8-3 0-5z" fill="#303030"/><path d="M103.3 86.7s0 1 .4.6c0 0 0-1-.4-.6M155 86v3h2v-3h-2z" fill="#717171"/><path d="M175 86v5c1.5-2.2 1.5-2.8 0-5z" fill="#909090"/><path d="M176 86l1 1-1-1z" fill="#303030"/><path d="M215 86l1 1-1-1z" fill="#505050"/><path d="M43 87l1 1-1-1z" fill="#303030"/><path d="M51.3 87.7s0 1 .4.6c0 0 0-1-.4-.6z" fill="#717171"/><path d="M79.3 87.7s0 1 .4.6c0 0 0-1-.4-.6z" fill="#303030"/><path d="M107 87l1 1-1-1z" fill="#b2b2b2"/><path d="M118 87l1 1-1-1z" fill="#505050"/><path d="M156 87l1 1-1-1m5.3.7s0 1 .4.6c0 0 0-1-.4-.6M201 87l1 1-1-1z" fill="#b2b2b2"/><path d="M215.3 87.7s0 1 .4.6c0 0 0-1-.4-.6z" fill="#909090"/><path d="M71 88v3c.7-1.6.7-1.4 0-3z" fill="#d0d0d0"/><path d="M103 88l1 1-1-1m3 0l1 1-1-1z" fill="#505050"/><path d="M167 88a7 7 0 0 0 2 3v-3h-2z" fill="#d0d0d0"/><path d="M29 89l1 1-1-1z" fill="#717171"/><path d="M44 89l1 1-1-1z" fill="#b2b2b2"/><path d="M51 89l1 1-1-1z" fill="#909090"/><path d="M79.3 89.7s0 1 .4.6c0 0 0-1-.4-.6z" fill="#505050"/><path d="M103 89v4c.7-1.8.7-2.2 0-4z" fill="#b2b2b2"/><path d="M105 89l1 1-1-1z" fill="#505050"/><path d="M117 89l1 1-1-1m38 0v3c.7-1.6.7-1.4 0-3z" fill="#303030"/><path d="M156 89c.2 3 0 4.8 3 6-.4-2.8-1-4-3-6z" fill="#d0d0d0"/><path d="M200.3 89.7s0 1 .4.6c0 0 0-1-.4-.6z" fill="#b2b2b2"/><path d="M30 90l1 1-1-1z" fill="#505050"/><path d="M38 90v3c.7-1.6.7-1.4 0-3z" fill="#d0d0d0"/><path d="M44 90l1 1-1-1z" fill="#505050"/><path d="M70.3 90.7s0 1 .4.6c0 0 0-1-.4-.6z" fill="#303030"/><path d="M78 90l1 1-1-1z" fill="#b2b2b2"/><path d="M105 90l1 1-1-1m11 0l1 1-1-1z" fill="#d0d0d0"/><path d="M176 90c-1 1.5-1 1.2-1 3 1.3-1.4 1.4-1.2 1-3z" fill="#b2b2b2"/><path d="M199 90l1 1-1-1z" fill="#505050"/><path d="M29 91l1 1-1-1z" fill="#717171"/><path d="M52.3 91.7s0 1 .4.6c0 0 0-1-.4-.6z" fill="#303030"/><path d="M79.3 91.7s0 1 .4.6c0 0 0-1-.4-.6z" fill="#909090"/><path d="M104 91l1 1-1-1z" fill="#303030"/><path d="M116.3 91.7s0 1 .4.6c0 0 0-1-.4-.6z" fill="#717171"/><path d="M39 92l1 1-1-1z" fill="#303030"/><path d="M45.3 92.7s0 1 .4.6c0 0 0-1-.4-.6z" fill="#b2b2b2"/><path d="M156 92l1 1-1-1z" fill="#717171"/><path d="M176 92l-1 3c1.8-1 2-1.2 1-3z" fill="#909090"/><path d="M52 93v4c.7-1.8.7-2.2 0-4z" fill="#717171"/><path d="M71.3 93.7s0 1 .4.6c0 0 0-1-.4-.6M78 93c.5 2.7.9 5.3 1 8 1.2-3 1.5-5.8-1-8z" fill="#d0d0d0"/><path d="M115 93l1 3a7 7 0 0 0 1-3h-2z" fill="#b2b2b2"/><path d="M155.3 93.7s0 1 .4.6c0 0 0-1-.4-.6z" fill="#303030"/><path d="M29 94l1 1-1-1m8 0v2h2c-.5-1.6-.4-1.5-2-2z" fill="#b2b2b2"/><path d="M45.3 94.7s0 1 .4.6c0 0 0-1-.4-.6z" fill="#717171"/><path d="M70 94v4c.7-1.8.7-2.2 0-4z" fill="#303030"/><path d="M115.3 94.7s0 1 .4.6c0 0 0-1-.4-.6z" fill="#d0d0d0"/><path d="M156 94l1 1-1-1z" fill="#010101"/><path d="M198 94l1 1-1-1z" fill="#505050"/><path d="M175 95v2h2v-2h-2m23.3.7s0 1 .4.6c0 0 0-1-.4-.6z" fill="#717171"/><path d="M215 95l1 1-1-1z" fill="#d0d0d0"/><path d="M38 96v3c.7-1.6.7-1.4 0-3z" fill="#717171"/><path d="M46 96v3c.7-1.6.7-1.4 0-3z" fill="#d0d0d0"/><path d="M71 96l1 1-1-1z" fill="#909090"/><path d="M157 96l1 1-1-1z" fill="#b2b2b2"/><path d="M163.3 96.7s0 1 .4.6c0 0 0-1-.4-.6m42 0s0 1 .4.6c0 0 0-1-.4-.6z" fill="#d0d0d0"/><path d="M215.7 96.3c-.5.5.6.4.6.4.5-.5-.6-.4-.6-.4z" fill="#505050"/><path d="M28.3 97.7s0 1 .4.6c0 0 0-1-.4-.6z" fill="#303030"/><path d="M30.7 97.3c-.5.5.6.4.6.4.5-.5-.6-.4-.6-.4M52 97v3c.7-1.6.7-1.4 0-3z" fill="#d0d0d0"/><path d="M117.3 97.7s0 1 .4.6c0 0 0-1-.4-.6z" fill="#b2b2b2"/><path d="M175.7 97.3c-.5.5.6.4.6.4.5-.5-.6-.4-.6-.4z" fill="#909090"/><path d="M29.3 98.7s0 1 .4.6c0 0 0-1-.4-.6z" fill="#d0d0d0"/><path d="M37 98l1 1-1-1z" fill="#b2b2b2"/><path d="M45 98l-1 2c1.3-1 1.4-.7 1-2z" fill="#303030"/><path d="M70 98v2h2c-.5-1.6-.4-1.5-2-2z" fill="#717171"/><path d="M71 98v9c3-2.9 3.5-6.4 0-9z" fill="#d0d0d0"/><path d="M115 98l1 1-1-1z" fill="#909090"/><path d="M115 100h3l-1-2c-1.6.5-1.5.4-2 2m41.3-1.3s0 1 .4.6c0 0 0-1-.4-.6z" fill="#d0d0d0"/><path d="M169 98l1 1-1-1z" fill="#909090"/><path d="M175.3 98.7s0 1 .4.6c0 0 0-1-.4-.6z" fill="#d0d0d0"/><path d="M176 98c-1.4.9-1.4.8-3 1 1.2 1.7 2 2.2 4 3-.2-1.7-.3-2.5-1-4z" fill="#b2b2b2"/><path d="M177 98l1 1-1-1z" fill="#505050"/><path d="M198 98l1 1-1-1z" fill="#717171"/><path d="M215 98l1 1-1-1z" fill="#909090"/><path d="M28 99l1 1-1-1z" fill="#505050"/><path d="M45 99l1 1-1-1z" fill="#717171"/><path d="M53 99v3c.7-1.6.7-1.4 0-3m42.3.7s0 1 .4.6c0 0 0-1-.4-.6z" fill="#303030"/><path d="M198.3 99.7s0 1 .4.6c0 0 0-1-.4-.6z" fill="#b2b2b2"/><path d="M215.7 99.3c-.5.5.6.4.6.4.5-.5-.6-.4-.6-.4z" fill="#505050"/><path d="M28 100l1 1-1-1z" fill="#909090"/><path d="M41.7 100.3c-.5.5.6.4.6.4.5-.5-.6-.4-.6-.4M70 100l1 1-1-1z" fill="#303030"/><path d="M96 100v4c.7-1.8.7-2.2 0-4z" fill="#d0d0d0"/><path d="M117 100l1 1-1-1z" fill="#909090"/><path d="M118 100l1 1-1-1z" fill="#303030"/><path d="M163.3 100.7s0 1 .4.6c0 0 0-1-.4-.6z" fill="#b2b2b2"/><path d="M216 100c-.4 2.5-.3 4.5 0 7 1-2.5 1-4.5 0-7z" fill="#909090"/><path d="M28 101l1 1-1-1m42 0l1 1-1-1z" fill="#505050"/><path d="M118.3 101.7s0 1 .4.6c0 0 0-1-.4-.6z" fill="#717171"/><path d="M156 101l1 1-1-1z" fill="#505050"/><path d="M157 101l1 1-1-1z" fill="#b2b2b2"/><path d="M158 101l1 1-1-1z" fill="#717171"/><path d="M173 103c1.6.1 2.5.4 4 1-1.3-2-2.2-3-4-1z" fill="#d0d0d0"/><path d="M197.3 101.7s0 1 .4.6c0 0 0-1-.4-.6z" fill="#303030"/><path d="M198 101l1 1-1-1z" fill="#505050"/><path d="M28.3 102.7s0 1 .4.6c0 0 0-1-.4-.6z" fill="#717171"/><path d="M53.3 102.7s0 1 .4.6c0 0 0-1-.4-.6M79 102l1 1-1-1z" fill="#909090"/><path d="M156 102v5c.8-2 .8-3 0-5z" fill="#717171"/><path d="M164 102a12 12 0 0 0-2 3c1.8-1 2.7-1.1 2-3z" fill="#d0d0d0"/><path d="M177 102l1 1-1-1z" fill="#505050"/><path d="M198 102l1 1-1-1z" fill="#909090"/><path d="M217.3 102.7s0 1 .4.6c0 0 0-1-.4-.6z" fill="#303030"/><path d="M29 103c-1 1.5-1 1.2-1 3 1.3-1.4 1.4-1.2 1-3z" fill="#b2b2b2"/><path d="M70 103v10c1.3-3.2 1.3-6.8 0-10z" fill="#303030"/><path d="M158.7 103.3c-.5.5.6.4.6.4.5-.5-.6-.4-.6-.4m18.3-.3c-.9 2-1.5 3.9-2 6 1.6-2 2.4-3.4 2-6z" fill="#909090"/><path d="M197 103v3c.7-1.6.7-1.4 0-3z" fill="#b2b2b2"/><path d="M45.7 104.3c-.5.5.6.4.6.4.5-.5-.6-.4-.6-.4m62 0c-.5.5.6.4.6.4.5-.5-.6-.4-.6-.4z" fill="#d0d0d0"/><path d="M118 104l1 1-1-1z" fill="#909090"/><path d="M119 104l1 1-1-1z" fill="#303030"/><path d="M158 104c.5 1.6.4 1.5 2 2v-2h-2m16 0c.4 2 .2 2 2 3a7 7 0 0 0-2-3z" fill="#d0d0d0"/><path d="M40 105l1 1-1-1z" fill="#b2b2b2"/><path d="M42.7 105.3c-.5.5.6.4.6.4.5-.5-.6-.4-.6-.4z" fill="#909090"/><path d="M46.3 105.7s0 1 .4.6c0 0 0-1-.4-.6z" fill="#505050"/><path d="M80 105v4c.7-1.8.7-2.2 0-4z" fill="#303030"/><path d="M107 105l1 1-1-1m12 0l1 1-1-1z" fill="#717171"/><path d="M163.3 105.7s0 1 .4.6c0 0 0-1-.4-.6z" fill="#d0d0d0"/><path d="M177 105l-1 5c1.4-1.8 1.8-2.8 1-5z" fill="#b2b2b2"/><path d="M207 105l-1 5c1.2-.6 1-.5 2-2l1 3c.6-2.7-.2-4-2-6z" fill="#d0d0d0"/><path d="M28 106l1 1-1-1z" fill="#717171"/><path d="M37 106l1 1-1-1z" fill="#d0d0d0"/><path d="M38 106l1 1-1-1z" fill="#505050"/><path d="M53 106l1 1-1-1m26.3.7s0 1 .4.6c0 0 0-1-.4-.6z" fill="#d0d0d0"/><path d="M96 106l1 1-1-1z" fill="#909090"/><path d="M197.3 106.7s0 1 .4.6c0 0 0-1-.4-.6z" fill="#d0d0d0"/><path d="M37 107l1 1-1-1z" fill="#717171"/><path d="M54.3 107.7s0 1 .4.6c0 0 0-1-.4-.6m54.7-.7l1 1-1-1z" fill="#505050"/><path d="M111 107l1 1-1-1z" fill="#b2b2b2"/><path d="M120 107v3c.7-1.6.7-1.4 0-3z" fill="#505050"/><path d="M156.3 107.7s0 1 .4.6c0 0 0-1-.4-.6z" fill="#303030"/><path d="M177 107l1 1-1-1z" fill="#717171"/><path d="M204 107c-1 2.3-1.2 3.5-1 6 .3-1.3.2-1.6 0-3 1.8-1 2-1.2 1-3z" fill="#d0d0d0"/><path d="M209 107l1 1-1-1z" fill="#909090"/><path d="M215 107l1 3a7 7 0 0 0 1-3h-2z" fill="#d0d0d0"/><path d="M28 108v5c.8-2 .8-3 0-5z" fill="#b2b2b2"/><path d="M37 108v6c1-2.3 1-3.7 0-6z" fill="#909090"/><path d="M47 108l1 1-1-1z" fill="#717171"/><path d="M104 108v3c1-1.1 1.3-1.6 2-3h-2z" fill="#d0d0d0"/><path d="M106 108l1 1-1-1z" fill="#505050"/><path d="M176 108l1 1-1-1z" fill="#010101"/><path d="M207 108l1 1-1-1z" fill="#909090"/><path d="M47.3 109.7s0 1 .4.6c0 0 0-1-.4-.6z" fill="#505050"/><path d="M54 109l1 1-1-1z" fill="#909090"/><path d="M80 109l1 1-1-1z" fill="#717171"/><path d="M105 109l1 1-1-1z" fill="#b2b2b2"/><path d="M110 109l1 1-1-1z" fill="#717171"/><path d="M119 109v3l2-1c-.5-1.6-.4-1.5-2-2z" fill="#d0d0d0"/><path d="M156 109v4c.7-1.8.7-2.2 0-4z" fill="#909090"/><path d="M196 109v4c.7-1.8.7-2.2 0-4z" fill="#717171"/><path d="M54 110c0 1.8 0 1.6 1 3a7 7 0 0 0-1-3z" fill="#d0d0d0"/><path d="M80 110l1 1-1-1z" fill="#303030"/><path d="M105 110l1 1-1-1z" fill="#505050"/><path d="M176 110l1 1-1-1z" fill="#717171"/><path d="M177.3 110.7s0 1 .4.6c0 0 0-1-.4-.6z" fill="#303030"/><path d="M208 110l1 1-1-1z" fill="#b2b2b2"/><path d="M217 110v3c.7-1.6.7-1.4 0-3m-169 1v4c.7-1.8.7-2.2 0-4m32.3.7s0 1 .4.6c0 0 0-1-.4-.6z" fill="#909090"/><path d="M104 111l1 1-1-1z" fill="#717171"/><path d="M121.3 111.7s0 1 .4.6c0 0 0-1-.4-.6z" fill="#303030"/><path d="M176 111l1 1-1-1z" fill="#d0d0d0"/><path d="M104.3 112.7s0 1 .4.6c0 0 0-1-.4-.6z" fill="#b2b2b2"/><path d="M111 112l1 1-1-1m9 0l1 1-1-1z" fill="#717171"/><path d="M172.3 112.7s0 1 .4.6c0 0 0-1-.4-.6z" fill="#b2b2b2"/><path d="M176 112l1 1-1-1m26 0l1 1-1-1z" fill="#909090"/><path d="M209.7 112.3c-.5.5.6.4.6.4.5-.5-.6-.4-.6-.4z" fill="#d0d0d0"/><path d="M28 113l-1 4c1-1.6 1.2-2.2 1-4z" fill="#303030"/><path d="M55.3 113.7s0 1 .4.6c0 0 0-1-.4-.6M80 113l1 1-1-1z" fill="#505050"/><path d="M112.3 113.7s0 1 .4.6c0 0 0-1-.4-.6z" fill="#717171"/><path d="M113 113l1 1-1-1z" fill="#b2b2b2"/><path d="M155.3 113.7s0 1 .4.6c0 0 0-1-.4-.6z" fill="#505050"/><path d="M177 113l1 1-1-1z" fill="#303030"/><path d="M196.3 113.7s0 1 .4.6c0 0 0-1-.4-.6z" fill="#b2b2b2"/><path d="M197.3 113.7s0 1 .4.6c0 0 0-1-.4-.6z" fill="#d0d0d0"/><path d="M207 113l1 1-1-1z" fill="#909090"/><path d="M218.3 113.7s0 1 .4.6c0 0 0-1-.4-.6z" fill="#505050"/><path d="M28 114v3c.7-1.6.7-1.4 0-3z" fill="#717171"/><path d="M37.3 114.7s0 1 .4.6c0 0 0-1-.4-.6z" fill="#303030"/><path d="M70 114v8a9.6 9.6 0 0 0 0-8z" fill="#717171"/><path d="M80 114l1 1-1-1z" fill="#b2b2b2"/><path d="M120 114l1 1-1-1z" fill="#909090"/><path d="M121 114l1 1-1-1z" fill="#505050"/><path d="M177 114l1 1-1-1z" fill="#717171"/><path d="M202.7 114.3c-.5.5.6.4.6.4.5-.5-.6-.4-.6-.4z" fill="#d0d0d0"/><path d="M48 115l1 1-1-1z" fill="#505050"/><path d="M49 115v3c.7-1.6.7-1.4 0-3z" fill="#d0d0d0"/><path d="M55 115l1 1-1-1m49 0l1 1-1-1z" fill="#909090"/><path d="M112 115l1 1-1-1z" fill="#303030"/><path d="M113.3 115.7s0 1 .4.6c0 0 0-1-.4-.6z" fill="#909090"/><path d="M114.7 115.3c-.5.5.6.4.6.4.5-.5-.6-.4-.6-.4z" fill="#d0d0d0"/><path d="M120 115c.5 1.6.4 1.5 2 2-.5-1.6-.4-1.5-2-2z" fill="#b2b2b2"/><path d="M121 115l1 3a7 7 0 0 0 1-3h-2z" fill="#717171"/><path d="M201 115l1 1-1-1z" fill="#b2b2b2"/><path d="M80.3 116.7s0 1 .4.6c0 0 0-1-.4-.6z" fill="#505050"/><path d="M104 116v4c.7-1.8.7-2.2 0-4z" fill="#d0d0d0"/><path d="M155 116l1 1-1-1z" fill="#303030"/><path d="M177 116l1 1-1-1z" fill="#909090"/><path d="M196.7 116.3c-.5.5.6.4.6.4.5-.5-.6-.4-.6-.4z" fill="#d0d0d0"/><path d="M205.7 116.3c-.5.5.6.4.6.4.5-.5-.6-.4-.6-.4m3.3-.3l1 1-1-1z" fill="#b2b2b2"/><path d="M219 116l1 1-1-1z" fill="#303030"/><path d="M56.3 117.7s0 1 .4.6c0 0 0-1-.4-.6m56.7-.7l1 1-1-1z" fill="#505050"/><path d="M115 117l1 1-1-1z" fill="#b2b2b2"/><path d="M155 117v3c.7-1.6.7-1.4 0-3m40 0l1 1-1-1z" fill="#505050"/><path d="M201 117l-1 2h2c0-1.9.3-1.3-1-2z" fill="#d0d0d0"/><path d="M202.3 117.7s0 1 .4.6c0 0 0-1-.4-.6z" fill="#b2b2b2"/><path d="M203 117l1 1-1-1z" fill="#717171"/><path d="M219.3 117.7s0 1 .4.6c0 0 0-1-.4-.6z" fill="#d0d0d0"/><path d="M28 118l1 1-1-1z" fill="#303030"/><path d="M49.3 118.7s0 1 .4.6c0 0 0-1-.4-.6z" fill="#b2b2b2"/><path d="M80 118c-.2 1.7-.2 2.3 0 4 .7-1.8.7-2.2 0-4m34 0l1 1-1-1m9 0l1 1-1-1z" fill="#909090"/><path d="M172.7 118.3c-.5.5.6.4.6.4.5-.5-.6-.4-.6-.4z" fill="#d0d0d0"/><path d="M178 118l1 1-1-1z" fill="#303030"/><path d="M195 118v3c.7-1.6.7-1.4 0-3z" fill="#d0d0d0"/><path d="M210 118l1 1-1-1z" fill="#b2b2b2"/><path d="M220 118l1 1-1-1z" fill="#303030"/><path d="M28 119l1 1-1-1z" fill="#909090"/><path d="M56.3 119.7s0 1 .4.6c0 0 0-1-.4-.6z" fill="#b2b2b2"/><path d="M114 119l1 1-1-1z" fill="#505050"/><path d="M122 119l1 1-1-1z" fill="#b2b2b2"/><path d="M178 119l1 1-1-1z" fill="#717171"/><path d="M205 121l3-1c-1.8-.4-1.6-.3-3 1z" fill="#b2b2b2"/><path d="M208 119l1 1-1-1m10.3.7s0 1 .4.6c0 0 0-1-.4-.6z" fill="#717171"/><path d="M28 120v4c.7-1.8.7-2.2 0-4z" fill="#b2b2b2"/><path d="M49.3 120.7s0 1 .4.6c0 0 0-1-.4-.6z" fill="#909090"/><path d="M105 120l1 1-1-1z" fill="#505050"/><path d="M115.3 120.7s0 1 .4.6c0 0 0-1-.4-.6z" fill="#909090"/><path d="M122 120c.5 1.6.4 1.5 2 2v-2h-2z" fill="#d0d0d0"/><path d="M124 120v3c.7-1.6.7-1.4 0-3z" fill="#505050"/><path d="M155 120l1 1-1-1z" fill="#b2b2b2"/><path d="M165.7 120.3c-.5.5.6.4.6.4.5-.5-.6-.4-.6-.4z" fill="#d0d0d0"/><path d="M178.3 120.7s0 1 .4.6c0 0 0-1-.4-.6z" fill="#b2b2b2"/><path d="M221 120l1 1-1-1z" fill="#909090"/><path d="M37 121v5c.8-2 .8-3 0-5z" fill="#303030"/><path d="M50 121l1 1-1-1z" fill="#b2b2b2"/><path d="M56 121v3c.7-1.6.7-1.4 0-3z" fill="#d0d0d0"/><path d="M104.3 121.7s0 1 .4.6c0 0 0-1-.4-.6z" fill="#909090"/><path d="M154 121l1 1-1-1z" fill="#303030"/><path d="M163.7 121.3c-.5.5.6.4.6.4.5-.5-.6-.4-.6-.4z" fill="#717171"/><path d="M179 121v3c.7-1.6.7-1.4 0-3m14 0l1 1-1-1z" fill="#303030"/><path d="M201 121a7 7 0 0 0 3 1 7 7 0 0 0-3-1z" fill="#d0d0d0"/><path d="M222 121l1 1-1-1z" fill="#505050"/><path d="M249 121a7 7 0 0 0 3 1 7 7 0 0 0-3-1z" fill="#303030"/><path d="M252 121c2 .9 3.7 1 6 1-2-.9-3.7-1-6-1z" fill="#909090"/><path d="M258 121l1 1-1-1m-209 1l1 1-1-1m21 0v10c1.3-3.2 1.3-6.8 0-10z" fill="#505050"/><path d="M80 122v3c.7-1.6.7-1.4 0-3z" fill="#d0d0d0"/><path d="M95 122v3c.7-1.6.7-1.4 0-3z" fill="#303030"/><path d="M123 122l1 1-1-1z" fill="#b2b2b2"/><path d="M154 122l1 1-1-1z" fill="#909090"/><path d="M158.3 122.7s0 1 .4.6c0 0 0-1-.4-.6z" fill="#d0d0d0"/><path d="M163.7 122.3c-.5.5.6.4.6.4.5-.5-.6-.4-.6-.4z" fill="#b2b2b2"/><path d="M166 122a7 7 0 0 0 3 1 7 7 0 0 0-3-1z" fill="#909090"/><path d="M192 122l1 1-1-1z" fill="#303030"/><path d="M222 122v2h2c-.5-1.6-.4-1.5-2-2z" fill="#d0d0d0"/><path d="M247 122l1 1-1-1z" fill="#717171"/><path d="M248 122l1 1-1-1z" fill="#d0d0d0"/><path d="M257 145c-6.3.8-12.9-.4-19 1 1.7 1.7 2.6.7 2 3l16 1a7 7 0 0 0-3-2c5.5-1.8 9.4-.9 13-6-1.7-.2-2.3-.2-4 0a6.4 6.4 0 0 1 3-2v-2c-4.2-2.5-7-4-12-4a6.4 6.4 0 0 1 3-2l-6-3c6-2.5 10.9-.3 17 1l1-4c-2.7 1-3.8.8-6-1 1.9.2 3.1.2 5 0a22 22 0 0 0-21-1c-3 1.7-6.1 4.2-5.2 8 1.6 6.6 12.1 8 16.2 13z" fill="#f8f8f8"/><path d="M260.7 122.3c-.5.5.6.4.6.4.5-.5-.6-.4-.6-.4z" fill="#b2b2b2"/><path d="M262 122l1 1-1-1z" fill="#717171"/><path d="M263 122a7 7 0 0 0 3 1 7 7 0 0 0-3-1z" fill="#909090"/><path d="M104 123v12c1.5-3.6 1.5-8.4 0-12z" fill="#d0d0d0"/><path d="M105 123l1 1-1-1z" fill="#303030"/><path d="M116 123l1 1-1-1z" fill="#909090"/><path d="M124.3 123.7s0 1 .4.6c0 0 0-1-.4-.6z" fill="#d0d0d0"/><path d="M163 123v2c1.6-.5 1.5-.4 2-2h-2z" fill="#717171"/><path d="M168 126c2.8 1 5.1.5 8 0-1.5-.7-2.3-.8-4-1l2-1c-3-2-3 1.6-6 2z" fill="#d0d0d0"/><path d="M246 123l1 1-1-1m19.7.3c-.5.5.6.4.6.4.5-.5-.6-.4-.6-.4z" fill="#b2b2b2"/><path d="M27 124l1 1-1-1z" fill="#505050"/><path d="M50 124l1 1-1-1z" fill="#d0d0d0"/><path d="M116 124l1 1-1-1z" fill="#303030"/><path d="M125.3 124.7s0 1 .4.6c0 0 0-1-.4-.6z" fill="#505050"/><path d="M153 124l1 1-1-1z" fill="#717171"/><path d="M179 124l1 1-1-1z" fill="#909090"/><path d="M192 124l1 1-1-1z" fill="#b2b2b2"/><path d="M200 127l4-2c-2.1-.2-2.5.4-4 2z" fill="#717171"/><path d="M204 124l-1 2h2c0-1.9.3-1.3-1-2z" fill="#b2b2b2"/><path d="M208 124a7 7 0 0 0 3 1 7 7 0 0 0-3-1z" fill="#909090"/><path d="M211 124c1.5.7 2.3.8 4 1-1.5-.7-2.3-.8-4-1z" fill="#505050"/><path d="M215 124c1.5.7 2.3.8 4 1-1.5-.7-2.3-.8-4-1z" fill="#303030"/><path d="M219 124l1 1-1-1z" fill="#717171"/><path d="M222 124l1 1-1-1m23 0l1 1-1-1m22 0l1 1-1-1m-240 1l1 1-1-1z" fill="#909090"/><path d="M50 125v5c.8-2 .8-3 0-5z" fill="#717171"/><path d="M57 125l1 1-1-1z" fill="#505050"/><path d="M81 125v4c.7-1.8.7-2.2 0-4z" fill="#303030"/><path d="M190 125l1 1-1-1z" fill="#717171"/><path d="M191 125l1 1-1-1z" fill="#b2b2b2"/><path d="M198.7 125.3c-.5.5.6.4.6.4.5-.5-.6-.4-.6-.4z" fill="#909090"/><path d="M200 125l1 1-1-1z" fill="#d0d0d0"/><path d="M205 125l1 1-1-1z" fill="#717171"/><path d="M242 125l1 1-1-1z" fill="#505050"/><path d="M243 125l1 1-1-1z" fill="#b2b2b2"/><path d="M262 125c2 2.7 4 2.7 6 0h-6z" fill="#d0d0d0"/><path d="M275 125c1.5.7 2.3.8 4 1-1.5-.7-2.3-.8-4-1z" fill="#717171"/><path d="M313 125l1 1-1-1z" fill="#303030"/><path d="M314.7 125.3c-.5.5.6.4.6.4.5-.5-.6-.4-.6-.4z" fill="#505050"/><path d="M316 125a7 7 0 0 0 3 1 7 7 0 0 0-3-1z" fill="#717171"/><path d="M319 125a7 7 0 0 0 3 1 7 7 0 0 0-3-1z" fill="#303030"/><path d="M57 126l1 1-1-1z" fill="#909090"/><path d="M95.3 126.7s0 1 .4.6c0 0 0-1-.4-.6z" fill="#303030"/><path d="M126 126l1 1-1-1z" fill="#505050"/><path d="M156.7 126.3c-.5.5.6.4.6.4.5-.5-.6-.4-.6-.4z" fill="#b2b2b2"/><path d="M164.3 126.7s0 1 .4.6c0 0 0-1-.4-.6z" fill="#d0d0d0"/><path d="M165 126l1 1-1-1z" fill="#909090"/><path d="M173 126c.5 1.6.4 1.5 2 2v-2h-2m7 0l1 1-1-1z" fill="#b2b2b2"/><path d="M188 126l1 1-1-1z" fill="#505050"/><path d="M189 126l1 1-1-1z" fill="#b2b2b2"/><path d="M194.7 126.3c-.5.5.6.4.6.4.5-.5-.6-.4-.6-.4z" fill="#d0d0d0"/><path d="M196.7 126.3c-.5.5.6.4.6.4.5-.5-.6-.4-.6-.4m4.3-.3a7 7 0 0 0 3 1 7 7 0 0 0-3-1z" fill="#303030"/><path d="M241 126l1 1-1-1z" fill="#b2b2b2"/><path d="M274 126l1 1-1-1z" fill="#505050"/><path d="M275 126c-.7 3.7-2.5 10 0 13a6.4 6.4 0 0 0-2 3c1.8 0 1.5 0 3 1l-3 5c2 .9 3.8 1.5 6 2-.3-3 .2-5.2 1-8 3.5 2 9.6 6.7 13.8 6.4 5.2-.4-.4-5-2.8-5.4l1-2h-6c1.5-1 1.4-.8 2-2-3.7-3.3 10.4-5 6-7a12 12 0 0 0 2-3c-4.9 1.2-10.2 1.4-13 6l-5-1c.9-4 1.2-6.6-3-8z" fill="#f8f8f8"/><path d="M278 126l1 1-1-1z" fill="#d0d0d0"/><path d="M313 126l1 1-1-1z" fill="#909090"/><path d="M306 134l-4 1c-.2 2.2-1 4.7-.2 6.8 3.4 10.3 19.4 7.3 26.2 3.2-1.3-.3-1.6-.2-3 0v-2c-6 1.6-10.6 3.3-15-2l-3 2c2.1-3.2 5.6-2.3 8-5 3.8 2.6 7.7 2 12 1l-1-2c1.8 0 1.5 0 3-1-1.3-4-2.8-8-7.2-9.5-5.5-1.8-16.5.6-15.8 7.5z" fill="#f8f8f8"/><path d="M27 127v4c.7-1.8.7-2.2 0-4z" fill="#909090"/><path d="M36.3 127.7s0 1 .4.6c0 0 0-1-.4-.6m81.7-.7l1 1-1-1z" fill="#d0d0d0"/><path d="M126.3 127.7s0 1 .4.6c0 0 0-1-.4-.6m24.7-.7l1 1-1-1z" fill="#909090"/><path d="M156 130l4 1-1-4c-2 .9-2 1-3 3z" fill="#d0d0d0"/><path d="M159 129l3-1c-1.8-1-2-.8-3 1m22-2l1 1-1-1m7 0l1 1-1-1z" fill="#b2b2b2"/><path d="M193 127l1 1-1-1z" fill="#717171"/><path d="M240.3 127.7s0 1 .4.6c0 0 0-1-.4-.6z" fill="#909090"/><path d="M253 127c1.8.8 3 1 5 1-1.8-.8-3-1-5-1z" fill="#b2b2b2"/><path d="M274 127l1 1-1-1z" fill="#d0d0d0"/><path d="M294 127l1 1-1-1z" fill="#303030"/><path d="M309.7 127.3c-.5.5.6.4.6.4.5-.5-.6-.4-.6-.4z" fill="#717171"/><path d="M311 127l1 1-1-1z" fill="#b2b2b2"/><path d="M324 127v2h2c-.5-1.6-.4-1.5-2-2z" fill="#909090"/><path d="M378 127a7 7 0 0 0 3 1 7 7 0 0 0-3-1z" fill="#303030"/><path d="M381.7 127.3c-.5.5.6.4.6.4.5-.5-.6-.4-.6-.4z" fill="#717171"/><path d="M383.7 127.3c-.5.5.6.4.6.4.5-.5-.6-.4-.6-.4z" fill="#b2b2b2"/><path d="M385 127c1.5.7 2.3.8 4 1-1.5-.7-2.3-.8-4-1z" fill="#505050"/><path d="M413 127a7 7 0 0 0 3 1 7 7 0 0 0-3-1z" fill="#303030"/><path d="M416 127c1.8.8 3 1 5 1-1.8-.8-3-1-5-1z" fill="#505050"/><path d="M421 127c3.2 1.3 6.6 1 10 1-3.2-1.3-6.6-1-10-1z" fill="#909090"/><path d="M431.7 127.3c-.5.5.6.4.6.4.5-.5-.6-.4-.6-.4z" fill="#d0d0d0"/><path d="M433.7 127.3c-.5.5.6.4.6.4.5-.5-.6-.4-.6-.4z" fill="#717171"/><path d="M436 127l1 1-1-1z" fill="#505050"/><path d="M95 128l1 1-1-1m23 0l1 1-1-1z" fill="#717171"/><path d="M150 128l1 1-1-1z" fill="#909090"/><path d="M178 128c-1 1.5-1 1.2-1 3 1.3-1.4 1.4-1.2 1-3z" fill="#d0d0d0"/><path d="M189 128a7 7 0 0 0 3 1 7 7 0 0 0-3-1z" fill="#717171"/><path d="M192 128l1 1-1-1z" fill="#303030"/><path d="M250 128l1 1-1-1z" fill="#717171"/><path d="M251 128l-1 2h2c0-1.9.3-1.3-1-2z" fill="#303030"/><path d="M260 128l1 1-1-1z" fill="#717171"/><path d="M273 128l1 1-1-1m6 0l1 1-1-1z" fill="#505050"/><path d="M293 128l1 1-1-1z" fill="#717171"/><path d="M294 128l-2 1c1.5.8 2.8.9 2-1z" fill="#d0d0d0"/><path d="M295 128l1 1-1-1z" fill="#717171"/><path d="M306.7 128.3c-.5.5.6.4.6.4.5-.5-.6-.4-.6-.4z" fill="#909090"/><path d="M326 128l1 1-1-1z" fill="#505050"/><path d="M373 128l1 1-1-1z" fill="#909090"/><path d="M395 148v-4c-3 .6-7.5.7-8 4-4.7.4-8.4 0-13-1 0-2-.3-3-1-5 8.2 0 16.1-1 24-3-6.9-3-15.6-2-23-2 2.2-1.9 5.6-3.3 6-6 5.9-.3 10.3.2 16 1-5.1-5.3-19.6-6.2-25.2-1-4 3.7-7 12-2.4 16.6 2 2 5 2.3 7.6 2.8 2.8.5 5.2.4 8 0 4-.5 7.4-.6 11-2.4z" fill="#f8f8f8"/><path d="M388.7 128.3c-.5.5.6.4.6.4.5-.5-.6-.4-.6-.4z" fill="#d0d0d0"/><path d="M390 128c1.5.7 2.3.8 4 1-1.5-.7-2.3-.8-4-1m19 0l1 1-1-1z" fill="#717171"/><path d="M410 128l1 1-1-1z" fill="#d0d0d0"/><path d="M402 132c3.7.8 7.3.8 11 1 0 5.3.1 10 2 15l7-2c1-5.2.6-9.8 0-15l14-1v-2c-9.2 0-27.1-3.2-34 4z" fill="#f8f8f8"/><path d="M436.3 128.7s0 1 .4.6c0 0 0-1-.4-.6z" fill="#909090"/><path d="M58.3 129.7s0 1 .4.6c0 0 0-1-.4-.6M81 129v3c.7-1.6.7-1.4 0-3z" fill="#717171"/><path d="M119.7 129.3c-.5.5.6.4.6.4.5-.5-.6-.4-.6-.4m30 0c-.5.5.6.4.6.4.5-.5-.6-.4-.6-.4m13 0c-.5.5.6.4.6.4.5-.5-.6-.4-.6-.4z" fill="#d0d0d0"/><path d="M164 129c1.8.8 3 1 5 1-1.8-.8-3-1-5-1z" fill="#b2b2b2"/><path d="M169 129c1.8.8 3 1 5 1-1.8-.8-3-1-5-1z" fill="#d0d0d0"/><path d="M174 129c1 1.8 1 1.6 3 2a7 7 0 0 0-3-2z" fill="#717171"/><path d="M183 129l1 1-1-1z" fill="#b2b2b2"/><path d="M263 129l1 1-1-1z" fill="#303030"/><path d="M264 129l1 1-1-1z" fill="#b2b2b2"/><path d="M267 129l-2 1c1.5.8 2.8.9 2-1z" fill="#909090"/><path d="M273.7 129.3c-.5.5.6.4.6.4.5-.5-.6-.4-.6-.4z" fill="#d0d0d0"/><path d="M279 129l1 1-1-1z" fill="#b2b2b2"/><path d="M289 129l1 1-1-1z" fill="#303030"/><path d="M290 129l1 1-1-1z" fill="#717171"/><path d="M291 129l1 1-1-1m5.3.7s0 1 .4.6c0 0 0-1-.4-.6z" fill="#b2b2b2"/><path d="M305 129l-2 4c1.6-1.5 2.2-1.9 2-4z" fill="#909090"/><path d="M327 129l1 1-1-1m44 0l1 1-1-1z" fill="#505050"/><path d="M394 129l1 1-1-1m9.3.7s0 1 .4.6c0 0 0-1-.4-.6z" fill="#909090"/><path d="M119 130l1 1-1-1z" fill="#303030"/><path d="M127 130l1 1-1-1z" fill="#b2b2b2"/><path d="M148 130v2h2c-.5-1.6-.4-1.5-2-2m4 0l-1 2h2c0-1.9.3-1.3-1-2z" fill="#d0d0d0"/><path d="M178.7 130.3c-.5.5.6.4.6.4.5-.5-.6-.4-.6-.4z" fill="#909090"/><path d="M180.7 130.3c-.5.5.6.4.6.4.5-.5-.6-.4-.6-.4z" fill="#505050"/><path d="M184 130l-1 2h2c0-1.9.3-1.3-1-2m69.7.3c-.5.5.6.4.6.4.5-.5-.6-.4-.6-.4z" fill="#717171"/><path d="M273.3 130.7s0 1 .4.6c0 0 0-1-.4-.6z" fill="#303030"/><path d="M274 130l1 1-1-1z" fill="#909090"/><path d="M279 130l-1 4c1.3-1.7 1.6-2 1-4z" fill="#d0d0d0"/><path d="M288 130l1 1-1-1z" fill="#717171"/><path d="M297 130l1 1-1-1z" fill="#303030"/><path d="M304 130l1 1-1-1z" fill="#505050"/><path d="M308.3 130.7s0 1 .4.6c0 0 0-1-.4-.6z" fill="#d0d0d0"/><path d="M309 130l1 1-1-1z" fill="#505050"/><path d="M310 130l1 1-1-1z" fill="#909090"/><path d="M327 130a7 7 0 0 0 2 3c-.7-1.4-1-1.9-2-3z" fill="#d0d0d0"/><path d="M335 130l-1 6h2c-.2-2-.4-4-1-6z" fill="#909090"/><path d="M335 133l3-1a6.4 6.4 0 0 1-3 2l3 3c-1.5-1-1.2-1-3-1v9c1.8 0 1.5 0 3-1-1.2 2-1.7 2.3-4 3 2.6 3.3 5.3 1.8 9 1.8 7 .2 13.9.4 21 .2-3.8-5-17-3-23-3 1-5 1-10 1-15-3.2-.3-5.1-.8-7 2z" fill="#f8f8f8"/><path d="M338 130l1 1-1-1z" fill="#717171"/><path d="M339 130l1 1-1-1z" fill="#303030"/><path d="M340.7 130.3c-.5.5.6.4.6.4.5-.5-.6-.4-.6-.4z" fill="#505050"/><path d="M371 130l1 1-1-1z" fill="#909090"/><path d="M385 130c1.5.7 2.3.8 4 1-1.5 1-1.2 1-3 1 1.5.7 2.3.8 4 1 .5 2.4.6 2.5 3 3-1.5 1-1.2 1-3 1 2.5 1 5.3 1.3 8 2-1.5-2-2.6-2.4-5-3l3-4c-1.3.8-1.2.7-2 2-1.5-1.2-3.2-1.7-2-3-2.3-1-4.5-1-7-1z" fill="#d0d0d0"/><path d="M395 130l1 1-1-1z" fill="#717171"/><path d="M402 130l1 1-1-1z" fill="#505050"/><path d="M429 130l1 1-1-1z" fill="#909090"/><path d="M430 130l1 1-1-1m2 0l1 1-1-1z" fill="#505050"/><path d="M26 131l1 1-1-1z" fill="#303030"/><path d="M51.3 131.7s0 1 .4.6c0 0 0-1-.4-.6m7 0s0 1 .4.6c0 0 0-1-.4-.6M80 131l1 1-1-1z" fill="#d0d0d0"/><path d="M95 131v4c.7-1.8.7-2.2 0-4z" fill="#909090"/><path d="M120 131l1 1-1-1z" fill="#d0d0d0"/><path d="M128 131l1 1-1-1z" fill="#505050"/><path d="M153.7 131.3c-.5.5.6.4.6.4.5-.5-.6-.4-.6-.4z" fill="#909090"/><path d="M155.7 131.3c-.5.5.6.4.6.4.5-.5-.6-.4-.6-.4m83.3-.3l1 1-1-1z" fill="#505050"/><path d="M256 131l1 1-1-1z" fill="#b2b2b2"/><path d="M284 131l1 1-1-1z" fill="#303030"/><path d="M285.7 131.3c-.5.5.6.4.6.4.5-.5-.6-.4-.6-.4m9 0c-.5.5.6.4.6.4.5-.5-.6-.4-.6-.4z" fill="#d0d0d0"/><path d="M296.3 131.7s0 1 .4.6c0 0 0-1-.4-.6z" fill="#717171"/><path d="M315 131l1 1-1-1z" fill="#909090"/><path d="M316 131c2 .9 3.7 1 6 1-2-.9-3.7-1-6-1z" fill="#303030"/><path d="M322 131c.5 1.6.4 1.5 2 2-.5-1.6-.4-1.5-2-2z" fill="#505050"/><path d="M323.7 131.3c-.5.5.6.4.6.4.5-.5-.6-.4-.6-.4m4.3-.3l1 1-1-1z" fill="#909090"/><path d="M370 131l1 1-1-1m10 0l1 1-1-1z" fill="#b2b2b2"/><path d="M381 131v2h2c-.5-1.6-.4-1.5-2-2z" fill="#d0d0d0"/><path d="M382 131l1 1-1-1z" fill="#505050"/><path d="M383 131c1 1.8 1 1.6 3 2a7 7 0 0 0-3-2z" fill="#909090"/><path d="M385.7 131.3c-.5.5.6.4.6.4.5-.5-.6-.4-.6-.4z" fill="#717171"/><path d="M387.7 131.3c-.5.5.6.4.6.4.5-.5-.6-.4-.6-.4z" fill="#303030"/><path d="M390 131a15 15 0 0 0 4 3c-1.2-1.9-1.9-2.2-4-3z" fill="#717171"/><path d="M396 131l1 1-1-1z" fill="#909090"/><path d="M401 131l1 1-1-1m21 0c1.5.7 2.3.8 4 1-1.5-.7-2.3-.8-4-1z" fill="#b2b2b2"/><path d="M426 131l1 1-1-1z" fill="#717171"/><path d="M427.7 131.3c-.5.5.6.4.6.4.5-.5-.6-.4-.6-.4z" fill="#303030"/><path d="M26 132l1 1-1-1z" fill="#b2b2b2"/><path d="M37 132l1 1-1-1z" fill="#505050"/><path d="M70 132v4c.7-1.8.7-2.2 0-4z" fill="#303030"/><path d="M81 132l1 1-1-1z" fill="#909090"/><path d="M120 132l1 1-1-1z" fill="#717171"/><path d="M128 132l1 1-1-1z" fill="#909090"/><path d="M201 132a7 7 0 0 0 3 1 7 7 0 0 0-3-1z" fill="#303030"/><path d="M204 132c1 1.8 1 1.6 3 2a7 7 0 0 0-3-2z" fill="#505050"/><path d="M206.7 132.3c-.5.5.6.4.6.4.5-.5-.6-.4-.6-.4z" fill="#717171"/><path d="M209 132l1 1-1-1m2.7.3c-.5.5.6.4.6.4.5-.5-.6-.4-.6-.4z" fill="#505050"/><path d="M213 132a7 7 0 0 0 3 1 7 7 0 0 0-3-1z" fill="#909090"/><path d="M216 132l1 1-1-1z" fill="#303030"/><path d="M218.7 132.3c-.5.5.6.4.6.4.5-.5-.6-.4-.6-.4z" fill="#b2b2b2"/><path d="M197 136c-.5-3.2-5.2-1.3-7.9-1-8.5 1.3-16.8 1-25.1 4a8.1 8.1 0 0 1 5-2c-6.4-2.7-14.2 1.2-21 1 .2 3-.9 7.8 1.2 10.4 1.7 2.1 5.4 1.7 7.8 1.6 6.8-.3 13.4-1.6 20-3-.5 1.6-.4 1.5-2 2 2.6 1 4.3.8 7 0-1.5-.7-2.3-.8-4-1a27 27 0 0 1 7-2 12 12 0 0 0-2 3c3.3.3 10-2.7 10 1 7-.1 19.1.5 23-6 1 1.5 1 1.2 1 3 1.8-.6 3-1 5-1v-4l-3 1c3.1-3.5 3.3-6.5 2-11-8 1.9-16.1 1.8-24 4z" fill="#f8f8f8"/><path d="M221 132l1 1-1-1z" fill="#b2b2b2"/><path d="M240.3 132.7s0 1 .4.6c0 0 0-1-.4-.6z" fill="#d0d0d0"/><path d="M254 132c1.5.7 2.3.8 4 1-1.5-.7-2.3-.8-4-1z" fill="#717171"/><path d="M273 132l1 1-1-1z" fill="#505050"/><path d="M283 132l1 1-1-1z" fill="#909090"/><path d="M289 132c1.5.7 2.3.8 4 1-1.5-.7-2.3-.8-4-1m14 2h3l-1-2c-1.6.5-1.5.4-2 2z" fill="#d0d0d0"/><path d="M314 132l1 1-1-1z" fill="#b2b2b2"/><path d="M311 137c4.3-.5 8.8-.8 13-2v-2c-5.4-1.6-10-1.1-13 4z" fill="#010101"/><path d="M324.3 132.7s0 1 .4.6c0 0 0-1-.4-.6m11.7-.7v2c1.6-.5 1.5-.4 2-2h-2z" fill="#d0d0d0"/><path d="M342 132v3c.7-1.6.7-1.4 0-3z" fill="#717171"/><path d="M367 132l1 1-1-1z" fill="#303030"/><path d="M368 132l1 1-1-1z" fill="#909090"/><path d="M396 132l1 1-1-1z" fill="#505050"/><path d="M402 132c.5 1.6.4 1.5 2 2-.5-1.6-.4-1.5-2-2z" fill="#717171"/><path d="M403 132l1 1-1-1z" fill="#b2b2b2"/><path d="M408.7 132.3c-.5.5.6.4.6.4.5-.5-.6-.4-.6-.4z" fill="#909090"/><path d="M26 133l1 1-1-1z" fill="#717171"/><path d="M37 133l1 1-1-1z" fill="#909090"/><path d="M59 133l1 1-1-1m22.3.7s0 1 .4.6c0 0 0-1-.4-.6z" fill="#303030"/><path d="M120 133l1 1-1-1z" fill="#505050"/><path d="M121 133v2c1.6-.5 1.5-.4 2-2h-2z" fill="#b2b2b2"/><path d="M129 133l1 1-1-1z" fill="#505050"/><path d="M195.7 133.3c-.5.5.6.4.6.4.5-.5-.6-.4-.6-.4z" fill="#717171"/><path d="M197 133v3l4-2c-1.5-.7-2.3-.8-4-1z" fill="#b2b2b2"/><path d="M201 133l1 1-1-1z" fill="#f8f8f8"/><path d="M202 133v2c1.6-.5 1.5-.4 2-2h-2z" fill="#b2b2b2"/><path d="M207.7 133.3c-.5.5.6.4.6.4.5-.5-.6-.4-.6-.4z" fill="#909090"/><path d="M209.7 133.3c-.5.5.6.4.6.4.5-.5-.6-.4-.6-.4m12.3-.3v3c.7-1.6.7-1.4 0-3m31 0a7 7 0 0 0 3 1 7 7 0 0 0-3-1z" fill="#d0d0d0"/><path d="M256 133a7 7 0 0 0 3 1 7 7 0 0 0-3-1z" fill="#b2b2b2"/><path d="M259 133l1 1-1-1z" fill="#505050"/><path d="M273 133l1 1-1-1z" fill="#b2b2b2"/><path d="M279 133l1 1-1-1z" fill="#717171"/><path d="M282 133l1 1-1-1m13 0l1 1-1-1z" fill="#505050"/><path d="M309.7 133.3c-.5.5.6.4.6.4.5-.5-.6-.4-.6-.4z" fill="#d0d0d0"/><path d="M311.7 133.3c-.5.5.6.4.6.4.5-.5-.6-.4-.6-.4z" fill="#b2b2b2"/><path d="M328.3 133.7s0 1 .4.6c0 0 0-1-.4-.6z" fill="#909090"/><path d="M334 133l1 1-1-1z" fill="#303030"/><path d="M339 133l1 1-1-1m28 0l1 1-1-1m11 0l1 1-1-1z" fill="#b2b2b2"/><path d="M379.7 133.3c-.5.5.6.4.6.4.5-.5-.6-.4-.6-.4z" fill="#303030"/><path d="M376 135c4 1.7 8.7 1 13 1-3-4.6-8.6-2.7-13-1z" fill="#010101"/><path d="M388 133v4c1.4-1.8 1.7-2.4 0-4z" fill="#303030"/><path d="M393 136a22 22 0 0 0 5-1c-2.4-1.2-3-.8-5 1z" fill="#f8f8f8"/><path d="M396 133l1 1-1-1z" fill="#b2b2b2"/><path d="M404.7 133.3c-.5.5.6.4.6.4.5-.5-.6-.4-.6-.4z" fill="#505050"/><path d="M411 133c.5 1.6.4 1.5 2 2v-2h-2z" fill="#717171"/><path d="M422.3 133.7s0 1 .4.6c0 0 0-1-.4-.6z" fill="#909090"/><path d="M26 134l1 1-1-1z" fill="#303030"/><path d="M37 134l1 1-1-1m22 0l1 1-1-1z" fill="#b2b2b2"/><path d="M181.7 134.3c-.5.5.6.4.6.4.5-.5-.6-.4-.6-.4z" fill="#303030"/><path d="M183 134l1 1-1-1z" fill="#717171"/><path d="M181 135c2 .8 2.8.6 5 0a11 11 0 0 0-5 0z" fill="#d0d0d0"/><path d="M186 134l1 1-1-1z" fill="#717171"/><path d="M187.3 134.7s0 1 .4.6c0 0 0-1-.4-.6z" fill="#909090"/><path d="M188 134c1.5.7 2.3.8 4 1-1.5-.7-2.3-.8-4-1z" fill="#717171"/><path d="M192 134l1 1-1-1z" fill="#b2b2b2"/><path d="M199 134a7 7 0 0 0 3 1 7 7 0 0 0-3-1z" fill="#717171"/><path d="M204 134l1 1-1-1z" fill="#b2b2b2"/><path d="M241 134l1 1-1-1z" fill="#909090"/><path d="M260 134l1 1-1-1z" fill="#717171"/><path d="M273 134l1 1-1-1z" fill="#303030"/><path d="M280 134l1 1-1-1z" fill="#909090"/><path d="M281.7 134.3c-.5.5.6.4.6.4.5-.5-.6-.4-.6-.4z" fill="#d0d0d0"/><path d="M291 134l1 1-1-1z" fill="#717171"/><path d="M302 134l1 1-1-1z" fill="#b2b2b2"/><path d="M310 134c.5 1.6.4 1.5 2 2v-2h-2z" fill="#717171"/><path d="M324.3 134.7s0 1 .4.6c0 0 0-1-.4-.6z" fill="#909090"/><path d="M367.3 134.7s0 1 .4.6c0 0 0-1-.4-.6z" fill="#717171"/><path d="M376 134l1 1-1-1z" fill="#d0d0d0"/><path d="M25 135l-2 1c1.5.6 2 .6 2-1z" fill="#303030"/><path d="M60 135l1 1-1-1z" fill="#505050"/><path d="M81 135v3c.7-1.6.7-1.4 0-3m23 0l1 1-1-1z" fill="#b2b2b2"/><path d="M163 135c2.3 1 4.5 1 7 1-2.3-1-4.5-1-7-1z" fill="#505050"/><path d="M170 135l1 2c1.6-.5 1.5-.4 2-2h-3z" fill="#717171"/><path d="M176 135l1 1-1-1z" fill="#505050"/><path d="M177.7 135.3c-.5.5.6.4.6.4.5-.5-.6-.4-.6-.4z" fill="#909090"/><path d="M179 135l1 1-1-1z" fill="#d0d0d0"/><path d="M185 135l1 1-1-1z" fill="#909090"/><path d="M242 135l1 1-1-1z" fill="#505050"/><path d="M261.3 135.7s0 1 .4.6c0 0 0-1-.4-.6z" fill="#d0d0d0"/><path d="M262 135l1 1-1-1z" fill="#505050"/><path d="M273.3 135.7s0 1 .4.6c0 0 0-1-.4-.6z" fill="#717171"/><path d="M279 135l1 1-1-1z" fill="#d0d0d0"/><path d="M289 135v2h2c-.5-1.6-.4-1.5-2-2z" fill="#909090"/><path d="M301 135l1 1-1-1z" fill="#717171"/><path d="M323 135l1 1-1-1z" fill="#505050"/><path d="M336 135c.5 1.6.4 1.5 2 2v-2h-2z" fill="#d0d0d0"/><path d="M342.3 135.7s0 1 .4.6c0 0 0-1-.4-.6z" fill="#b2b2b2"/><path d="M375 135l1 1-1-1z" fill="#505050"/><path d="M397 135l1 1-1-1m15 0v3c.7-1.6.7-1.4 0-3z" fill="#d0d0d0"/><path d="M25 136l1 1-1-1m13.3.7s0 1 .4.6c0 0 0-1-.4-.6z" fill="#909090"/><path d="M94.3 136.7s0 1 .4.6c0 0 0-1-.4-.6z" fill="#505050"/><path d="M102 136l1 1-1-1z" fill="#b2b2b2"/><path d="M105 136v3c.7-1.6.7-1.4 0-3z" fill="#505050"/><path d="M122 136l1 1-1-1z" fill="#b2b2b2"/><path d="M130 136l1 1-1-1z" fill="#717171"/><path d="M156 136l1 1-1-1z" fill="#505050"/><path d="M157.7 136.3c-.5.5.6.4.6.4.5-.5-.6-.4-.6-.4z" fill="#909090"/><path d="M159.7 136.3c-.5.5.6.4.6.4.5-.5-.6-.4-.6-.4z" fill="#b2b2b2"/><path d="M169.7 136.3c-.5.5.6.4.6.4.5-.5-.6-.4-.6-.4z" fill="#909090"/><path d="M172.7 136.3c-.5.5.6.4.6.4.5-.5-.6-.4-.6-.4z" fill="#b2b2b2"/><path d="M222.3 136.7s0 1 .4.6c0 0 0-1-.4-.6m39.7-.7l1 1-1-1z" fill="#909090"/><path d="M301 136v2c1.6-.5 1.5-.4 2-2h-2z" fill="#b2b2b2"/><path d="M310 136c1 1.8 1 1.6 3 2-1.1-1-1.6-1.3-3-2z" fill="#d0d0d0"/><path d="M314.7 136.3c-.5.5.6.4.6.4.5-.5-.6-.4-.6-.4z" fill="#505050"/><path d="M316 136c1.5.7 2.3.8 4 1-1.5-.7-2.3-.8-4-1z" fill="#717171"/><path d="M328 136l1 1-1-1z" fill="#909090"/><path d="M334 136v4c.7-1.8.7-2.2 0-4z" fill="#717171"/><path d="M374 136l1 1-1-1z" fill="#909090"/><path d="M375 136c3.7 1.6 8 1 12 1-3.7-1.6-8-1-12-1z" fill="#303030"/><path d="M387 136l1 1-1-1z" fill="#717171"/><path d="M389 136c1.5.7 2.3.8 4 1-1.5-.7-2.3-.8-4-1m6.7.3c-.5.5.6.4.6.4.5-.5-.6-.4-.6-.4z" fill="#909090"/><path d="M19.3 137.7s0 1 .4.6c0 0 0-1-.4-.6z" fill="#505050"/><path d="M20 137l1 1-1-1z" fill="#b2b2b2"/><path d="M51 137l1 1-1-1m10 0l1 1-1-1z" fill="#909090"/><path d="M122 137l1 1-1-1z" fill="#303030"/><path d="M123 137v2c1.6-.5 1.5-.4 2-2h-2z" fill="#d0d0d0"/><path d="M131 137l1 1-1-1z" fill="#b2b2b2"/><path d="M132 137l1 1-1-1z" fill="#303030"/><path d="M139 137v2h2c-.5-1.6-.4-1.5-2-2z" fill="#505050"/><path d="M148 137c2 .9 3.7 1 6 1-2-.9-3.7-1-6-1z" fill="#303030"/><path d="M154.7 137.3c-.5.5.6.4.6.4.5-.5-.6-.4-.6-.4z" fill="#b2b2b2"/><path d="M164 139l6-1c-2.5-1-4.2-1-6 1z" fill="#d0d0d0"/><path d="M245 137l1 1-1-1z" fill="#717171"/><path d="M273 137l1 1-1-1z" fill="#b2b2b2"/><path d="M285 137l1 1-1-1z" fill="#909090"/><path d="M287 139l3-1c-1.8-1-2-.8-3 1m13-2v6c1-2.3 1-3.7 0-6z" fill="#303030"/><path d="M326 137l1 2c1.6-.5 1.5-.4 2-2h-3z" fill="#b2b2b2"/><path d="M342 137v5c.8-2 .8-3 0-5z" fill="#717171"/><path d="M423 137v6c1-2.3 1-3.7 0-6z" fill="#303030"/><path d="M39.3 138.7s0 1 .4.6c0 0 0-1-.4-.6z" fill="#b2b2b2"/><path d="M51.3 138.7s0 1 .4.6c0 0 0-1-.4-.6z" fill="#d0d0d0"/><path d="M62 138l1 1-1-1z" fill="#505050"/><path d="M70 138l1 1-1-1z" fill="#303030"/><path d="M71.7 138.3c-.5.5.6.4.6.4.5-.5-.6-.4-.6-.4z" fill="#d0d0d0"/><path d="M82.3 138.7s0 1 .4.6c0 0 0-1-.4-.6z" fill="#303030"/><path d="M94.3 138.7s0 1 .4.6c0 0 0-1-.4-.6z" fill="#909090"/><path d="M147 138l1 1-1-1z" fill="#505050"/><path d="M152 138l1 1-1-1z" fill="#717171"/><path d="M159.7 138.3c-.5.5.6.4.6.4.5-.5-.6-.4-.6-.4m2.3-.3l1 1-1-1z" fill="#b2b2b2"/><path d="M222 138v3c.7-1.6.7-1.4 0-3z" fill="#505050"/><path d="M246.7 138.3c-.5.5.6.4.6.4.5-.5-.6-.4-.6-.4z" fill="#717171"/><path d="M248 138l1 1-1-1z" fill="#b2b2b2"/><path d="M272 138l1 1-1-1z" fill="#717171"/><path d="M286 138l1 1-1-1z" fill="#909090"/><path d="M315 138c-1.7 1.7-10.6 2.4-6 5l-1-2c3.3.4 6.6 0 10 0-1-1.3-1.7-2-3-3z" fill="#d0d0d0"/><path d="M366 138l1 1-1-1z" fill="#909090"/><path d="M412.3 138.7s0 1 .4.6c0 0 0-1-.4-.6M20 139l1 1-1-1z" fill="#505050"/><path d="M21 139a7 7 0 0 0 3 1 7 7 0 0 0-3-1z" fill="#b2b2b2"/><path d="M104 139v2h2v-2h-2z" fill="#d0d0d0"/><path d="M123 139l1 1-1-1z" fill="#303030"/><path d="M130.7 139.3c-.5.5.6.4.6.4.5-.5-.6-.4-.6-.4z" fill="#b2b2b2"/><path d="M132 139l1 1-1-1m2 0c1.5.7 2.3.8 4 1-1.5-.7-2.3-.8-4-1z" fill="#909090"/><path d="M142 139l1 1-1-1z" fill="#d0d0d0"/><path d="M148 139l1 1-1-1z" fill="#909090"/><path d="M153 139c1.8.8 3 1 5 1-1.8-.8-3-1-5-1z" fill="#d0d0d0"/><path d="M250 139l1 1-1-1m15 0l1 1-1-1z" fill="#b2b2b2"/><path d="M273 139v2c1.6-.5 1.5-.4 2-2h-2m13 1c1.5.7 2.3.8 4 1-1.7-1-2-1-4-1z" fill="#d0d0d0"/><path d="M325 139l1 1-1-1z" fill="#b2b2b2"/><path d="M326 139l1 1-1-1z" fill="#717171"/><path d="M366 139l1 1-1-1z" fill="#303030"/><path d="M370 139l1 1-1-1m6 0l1 1-1-1z" fill="#909090"/><path d="M377 141l3-1c-1.8-1-2-.8-3 1z" fill="#d0d0d0"/><path d="M395.7 139.3c-.5.5.6.4.6.4.5-.5-.6-.4-.6-.4z" fill="#717171"/><path d="M422 139l1 1-1-1z" fill="#909090"/><path d="M24 140l1 1-1-1z" fill="#505050"/><path d="M32.3 140.7s0 1 .4.6c0 0 0-1-.4-.6z" fill="#d0d0d0"/><path d="M40 140l1 1-1-1z" fill="#505050"/><path d="M63.3 140.7s0 1 .4.6c0 0 0-1-.4-.6z" fill="#d0d0d0"/><path d="M124.3 140.7s0 1 .4.6c0 0 0-1-.4-.6z" fill="#717171"/><path d="M141 140l1 1-1-1m121 2a7 7 0 0 0 3-2 7 7 0 0 0-3 2z" fill="#d0d0d0"/><path d="M265 140l1 1-1-1z" fill="#303030"/><path d="M272.3 140.7s0 1 .4.6c0 0 0-1-.4-.6z" fill="#505050"/><path d="M304 140l1 1-1-1m14 0a7 7 0 0 0 3 1 7 7 0 0 0-3-1z" fill="#b2b2b2"/><path d="M321.7 140.3c-.5.5.6.4.6.4.5-.5-.6-.4-.6-.4z" fill="#909090"/><path d="M324.7 140.3c-.5.5.6.4.6.4.5-.5-.6-.4-.6-.4z" fill="#505050"/><path d="M334 140l1 1-1-1z" fill="#b2b2b2"/><path d="M365 140l1 1-1-1z" fill="#909090"/><path d="M390 140c1.5.7 2.3.8 4 1-1.5-.7-2.3-.8-4-1z" fill="#d0d0d0"/><path d="M412.3 140.7s0 1 .4.6c0 0 0-1-.4-.6z" fill="#303030"/><path d="M28.7 141.3c-.5.5.6.4.6.4.5-.5-.6-.4-.6-.4z" fill="#505050"/><path d="M30.7 141.3c-.5.5.6.4.6.4.5-.5-.6-.4-.6-.4z" fill="#909090"/><path d="M50.3 141.7s0 1 .4.6c0 0 0-1-.4-.6z" fill="#505050"/><path d="M64 141l1 1-1-1z" fill="#717171"/><path d="M83 141l1 1-1-1z" fill="#505050"/><path d="M94.3 141.7s0 1 .4.6c0 0 0-1-.4-.6z" fill="#d0d0d0"/><path d="M133 141l1 1-1-1z" fill="#b2b2b2"/><path d="M140 141l1 1-1-1z" fill="#909090"/><path d="M199 141l1 1-1-1m20 2a7 7 0 0 0 3-2 7 7 0 0 0-3 2z" fill="#b2b2b2"/><path d="M222 141v4c.7-1.8.7-2.2 0-4m30.7.3c-.5.5.6.4.6.4.5-.5-.6-.4-.6-.4z" fill="#303030"/><path d="M254 141l1 1-1-1m11 0l1 1-1-1z" fill="#b2b2b2"/><path d="M292 141c.5 1.6.4 1.5 2 2-.5-1.6-.4-1.5-2-2z" fill="#303030"/><path d="M308 141l1 1-1-1m26 0v6c1-2 1.4-3.9 2-6h-2z" fill="#717171"/><path d="M337 141l1 1-1-1z" fill="#909090"/><path d="M341 141l1 1-1-1z" fill="#b2b2b2"/><path d="M365 141v3c.7-1.6.7-1.4 0-3z" fill="#505050"/><path d="M381.7 141.3c-.5.5.6.4.6.4.5-.5-.6-.4-.6-.4z" fill="#d0d0d0"/><path d="M384 141a7 7 0 0 0 3 1 7 7 0 0 0-3-1z" fill="#b2b2b2"/><path d="M387.7 141.3c-.5.5.6.4.6.4.5-.5-.6-.4-.6-.4z" fill="#717171"/><path d="M389 141l1 1-1-1z" fill="#303030"/><path d="M38 142a7 7 0 0 0 3 1 7 7 0 0 0-3-1z" fill="#717171"/><path d="M59 142l1 1-1-1z" fill="#909090"/><path d="M71.3 142.7s0 1 .4.6c0 0 0-1-.4-.6z" fill="#d0d0d0"/><path d="M83.3 142.7s0 1 .4.6c0 0 0-1-.4-.6z" fill="#909090"/><path d="M93 142l1 1-1-1z" fill="#505050"/><path d="M106 142l1 1-1-1z" fill="#909090"/><path d="M124 142l1 1-1-1z" fill="#303030"/><path d="M139 142l1 1-1-1z" fill="#717171"/><path d="M195.7 142.3c-.5.5.6.4.6.4.5-.5-.6-.4-.6-.4z" fill="#909090"/><path d="M197.7 142.3c-.5.5.6.4.6.4.5-.5-.6-.4-.6-.4z" fill="#717171"/><path d="M212 142l1 1-1-1z" fill="#b2b2b2"/><path d="M213 142l1 1-1-1z" fill="#909090"/><path d="M214 142l1 1-1-1z" fill="#b2b2b2"/><path d="M215 142l1 1-1-1m2 0l1 1-1-1z" fill="#505050"/><path d="M239 142l1 1-1-1z" fill="#303030"/><path d="M255 142l1 1-1-1z" fill="#909090"/><path d="M266 142l1 1-1-1z" fill="#303030"/><path d="M273 142l1 1-1-1z" fill="#b2b2b2"/><path d="M274 142l-1 2c1.3-1 1.4-.7 1-2z" fill="#717171"/><path d="M275 142l1 1-1-1z" fill="#d0d0d0"/><path d="M280 142l1 1-1-1m11.7.3c-.5.5.6.4.6.4.5-.5-.6-.4-.6-.4z" fill="#b2b2b2"/><path d="M301 142v3c.7-1.6.7-1.4 0-3z" fill="#909090"/><path d="M310 142l1 1-1-1z" fill="#b2b2b2"/><path d="M324 142l1 1-1-1z" fill="#505050"/><path d="M342 142l1 1-1-1z" fill="#b2b2b2"/><path d="M373 142c1.5.7 2.3.8 4 1-1.5-.7-2.3-.8-4-1z" fill="#d0d0d0"/><path d="M377 142l1 1-1-1z" fill="#717171"/><path d="M378 142l1 1-1-1z" fill="#b2b2b2"/><path d="M379 142l1 1-1-1z" fill="#909090"/><path d="M380 142l1 1-1-1z" fill="#505050"/><path d="M417 142v2h2v-2h-2m-351.3 1.3c-.5.5.6.4.6.4.5-.5-.6-.4-.6-.4z" fill="#d0d0d0"/><path d="M67.3 143.7s0 1 .4.6c0 0 0-1-.4-.6z" fill="#b2b2b2"/><path d="M84 143l1 1-1-1z" fill="#303030"/><path d="M106 143l-1 2h2c0-1.9.3-1.3-1-2z" fill="#d0d0d0"/><path d="M138 143l1 1-1-1z" fill="#909090"/><path d="M147.3 143.7s0 1 .4.6c0 0 0-1-.4-.6z" fill="#505050"/><path d="M238.7 143.3c-.5.5.6.4.6.4.5-.5-.6-.4-.6-.4z" fill="#f8f8f8"/><path d="M240 143v2h2c-.5-1.6-.4-1.5-2-2z" fill="#909090"/><path d="M253 143l-1 2c1.3-1 1.4-.7 1-2z" fill="#717171"/><path d="M254.7 143.3c-.5.5.6.4.6.4.5-.5-.6-.4-.6-.4z" fill="#d0d0d0"/><path d="M256.3 143.7s0 1 .4.6c0 0 0-1-.4-.6m7.7-.7l1 1-1-1z" fill="#b2b2b2"/><path d="M265 143l1 1-1-1z" fill="#505050"/><path d="M274 143c0 1.8 0 1.6 1 3a7 7 0 0 0-1-3z" fill="#d0d0d0"/><path d="M279 143l1 1-1-1z" fill="#505050"/><path d="M281 143l1 1-1-1z" fill="#303030"/><path d="M282 143l1 1-1-1z" fill="#b2b2b2"/><path d="M311 143l1 1-1-1m10.7.3c-.5.5.6.4.6.4.5-.5-.6-.4-.6-.4m3.3-.3l1 1-1-1z" fill="#717171"/><path d="M413.3 143.7s0 1 .4.6c0 0 0-1-.4-.6z" fill="#d0d0d0"/><path d="M422 143v3c.7-1.6.7-1.4 0-3m-373 1l1 1-1-1m58.3.7s0 1 .4.6c0 0 0-1-.4-.6z" fill="#505050"/><path d="M131.7 144.3c-.5.5.6.4.6.4.5-.5-.6-.4-.6-.4m6.3-.3l1 1-1-1z" fill="#b2b2b2"/><path d="M177 144l1 1-1-1z" fill="#909090"/><path d="M216 144l-3 5c3.8 0 6.8.4 9-3-3.1.3-4 .4-6-2z" fill="#d0d0d0"/><path d="M238 144v2c1.6-.5 1.5-.4 2-2h-2m4 0c1.5.7 2.3.8 4 1-1.5-.7-2.3-.8-4-1z" fill="#505050"/><path d="M251 144l1 1-1-1m2.7.3c-.5.5.6.4.6.4.5-.5-.6-.4-.6-.4z" fill="#303030"/><path d="M255 144l1 1-1-1z" fill="#717171"/><path d="M264 144l1 1-1-1z" fill="#909090"/><path d="M279.3 144.7s0 1 .4.6c0 0 0-1-.4-.6z" fill="#303030"/><path d="M284 144l1 1-1-1z" fill="#717171"/><path d="M302 144v2h2v-2h-2m10 0l1 1-1-1z" fill="#b2b2b2"/><path d="M313 144c2 .9 3.7 1 6 1-2-.9-3.7-1-6-1z" fill="#303030"/><path d="M319.7 144.3c-.5.5.6.4.6.4.5-.5-.6-.4-.6-.4m6 0c-.5.5.6.4.6.4.5-.5-.6-.4-.6-.4z" fill="#d0d0d0"/><path d="M328 144l1 1-1-1z" fill="#717171"/><path d="M337 144a12 12 0 0 0-2 3c2.3-.5 3.1-.9 2-3z" fill="#d0d0d0"/><path d="M341.3 144.7s0 1 .4.6c0 0 0-1-.4-.6z" fill="#909090"/><path d="M391 144l1 1-1-1z" fill="#505050"/><path d="M392 144l1 1-1-1z" fill="#717171"/><path d="M395 144l1 1-1-1z" fill="#505050"/><path d="M49 145l1 1-1-1z" fill="#b2b2b2"/><path d="M64 145l1 1-1-1z" fill="#d0d0d0"/><path d="M65.7 145.3c-.5.5.6.4.6.4.5-.5-.6-.4-.6-.4z" fill="#505050"/><path d="M75.3 145.7s0 1 .4.6c0 0 0-1-.4-.6z" fill="#d0d0d0"/><path d="M85 145l1 1-1-1m6 0l1 1-1-1z" fill="#909090"/><path d="M125 145l1 1-1-1z" fill="#717171"/><path d="M136 145l1 1-1-1z" fill="#909090"/><path d="M147 145v3c.7-1.6.7-1.4 0-3z" fill="#717171"/><path d="M197 147a7 7 0 0 0 3-2 7 7 0 0 0-3 2m22-2l1 1-1-1m20 0l1 1-1-1z" fill="#b2b2b2"/><path d="M245 145a7 7 0 0 0 3 1 7 7 0 0 0-3-1z" fill="#909090"/><path d="M248.7 145.3c-.5.5.6.4.6.4.5-.5-.6-.4-.6-.4z" fill="#303030"/><path d="M250.7 145.3c-.5.5.6.4.6.4.5-.5-.6-.4-.6-.4z" fill="#909090"/><path d="M252.7 145.3c-.5.5.6.4.6.4.5-.5-.6-.4-.6-.4z" fill="#b2b2b2"/><path d="M264 145l1 1-1-1z" fill="#d0d0d0"/><path d="M273 145l1 1-1-1z" fill="#717171"/><path d="M285 145l1 1-1-1z" fill="#303030"/><path d="M286 145l1 1-1-1z" fill="#717171"/><path d="M296 145l1 1-1-1z" fill="#b2b2b2"/><path d="M327 145l1 1-1-1z" fill="#d0d0d0"/><path d="M359 145c1.8 1 3.4 1.7 5 3 1.2-3.3-2.5-3-5-3m7 0l1 1-1-1z" fill="#505050"/><path d="M387.7 145.3c-.5.5.6.4.6.4.5-.5-.6-.4-.6-.4z" fill="#717171"/><path d="M394 145l1 1-1-1z" fill="#d0d0d0"/><path d="M413 145l1 1-1-1z" fill="#717171"/><path d="M48 146l1 1-1-1z" fill="#b2b2b2"/><path d="M60.7 146.3c-.5.5.6.4.6.4.5-.5-.6-.4-.6-.4z" fill="#d0d0d0"/><path d="M62 146l1 1-1-1z" fill="#909090"/><path d="M63 146l1 1-1-1m7 0l1 1-1-1z" fill="#717171"/><path d="M86 146l1 1-1-1z" fill="#505050"/><path d="M90 146l1 1-1-1z" fill="#717171"/><path d="M135 146l1 1-1-1z" fill="#909090"/><path d="M181.7 146.3c-.5.5.6.4.6.4.5-.5-.6-.4-.6-.4z" fill="#b2b2b2"/><path d="M183.7 146.3c-.5.5.6.4.6.4.5-.5-.6-.4-.6-.4m12.6.4s0 1 .4.6c0 0 0-1-.4-.6z" fill="#d0d0d0"/><path d="M199 146l1 1-1-1z" fill="#717171"/><path d="M199 148a7 7 0 0 0 3-2 7 7 0 0 0-3 2z" fill="#d0d0d0"/><path d="M219 146l1 1-1-1z" fill="#505050"/><path d="M246.7 146.3c-.5.5.6.4.6.4.5-.5-.6-.4-.6-.4m6.3.7c3 1.6 5.7 1.5 9 1-3-1.6-5.7-1.2-9-1z" fill="#d0d0d0"/><path d="M262.7 146.3c-.5.5.6.4.6.4.5-.5-.6-.4-.6-.4z" fill="#909090"/><path d="M273 146l1 1-1-1m5 0v3c.7-1.6.7-1.4 0-3z" fill="#b2b2b2"/><path d="M287 146l1 1-1-1z" fill="#303030"/><path d="M288 146l1 1-1-1z" fill="#909090"/><path d="M297 146l1 1-1-1z" fill="#b2b2b2"/><path d="M303.7 146.3c-.5.5.6.4.6.4.5-.5-.6-.4-.6-.4z" fill="#505050"/><path d="M305.7 146.3c-.5.5.6.4.6.4.5-.5-.6-.4-.6-.4m20 0c-.5.5.6.4.6.4.5-.5-.6-.4-.6-.4z" fill="#b2b2b2"/><path d="M327 146l1 1-1-1z" fill="#505050"/><path d="M347 146l1 1-1-1z" fill="#909090"/><path d="M352 146c1.5.7 2.3.8 4 1-1.5-.7-2.3-.8-4-1z" fill="#d0d0d0"/><path d="M358 146l1 1-1-1z" fill="#b2b2b2"/><path d="M361 146a7 7 0 0 0 3 1 7 7 0 0 0-3-1m7.7.3c-.5.5.6.4.6.4.5-.5-.6-.4-.6-.4z" fill="#d0d0d0"/><path d="M374 146a7 7 0 0 0 3 1 7 7 0 0 0-3-1z" fill="#717171"/><path d="M377.7 146.3c-.5.5.6.4.6.4.5-.5-.6-.4-.6-.4z" fill="#303030"/><path d="M379.3 146.7s0 1 .4.6c0 0 0-1-.4-.6z" fill="#505050"/><path d="M385 146v2h2c-.5-1.6-.4-1.5-2-2m10.3.7s0 1 .4.6c0 0 0-1-.4-.6z" fill="#909090"/><path d="M396 146l1 1-1-1m17 0l1 1-1-1z" fill="#505050"/><path d="M417 147c1.7.4 2.2.3 4 0-1.8-.6-2-.5-4 0z" fill="#909090"/><path d="M421 146l1 1-1-1z" fill="#505050"/><path d="M47 147l1 1-1-1m12 0l1 1-1-1z" fill="#b2b2b2"/><path d="M60 147l1 1-1-1z" fill="#505050"/><path d="M84 147l-1 2h2c0-1.9.3-1.3-1-2z" fill="#b2b2b2"/><path d="M85 147c1 1.8 1 1.6 3 2a7 7 0 0 0-3-2z" fill="#909090"/><path d="M107.7 147.3c-.5.5.6.4.6.4.5-.5-.6-.4-.6-.4z" fill="#d0d0d0"/><path d="M124.3 147.7s0 1 .4.6c0 0 0-1-.4-.6z" fill="#303030"/><path d="M129.7 147.3c-.5.5.6.4.6.4.5-.5-.6-.4-.6-.4z" fill="#909090"/><path d="M131 147a7 7 0 0 0 3 1 7 7 0 0 0-3-1z" fill="#717171"/><path d="M155.7 147.3c-.5.5.6.4.6.4.5-.5-.6-.4-.6-.4z" fill="#303030"/><path d="M157 147l1 1-1-1z" fill="#717171"/><path d="M158 147l1 1-1-1z" fill="#b2b2b2"/><path d="M173 147c1.7 1 2 1 4 1-1.5-.7-2.3-.8-4-1m5 0a7 7 0 0 0 3 1 7 7 0 0 0-3-1z" fill="#909090"/><path d="M181 147c.5 1.6.4 1.5 2 2v-2h-2z" fill="#d0d0d0"/><path d="M190 147c1.5 1 2.2 1.4 4 2a8 8 0 0 0-4-2z" fill="#717171"/><path d="M194.7 147.3c-.5.5.6.4.6.4.5-.5-.6-.4-.6-.4z" fill="#b2b2b2"/><path d="M197.7 147.3c-.5.5.6.4.6.4.5-.5-.6-.4-.6-.4m42 0c-.5.5.6.4.6.4.5-.5-.6-.4-.6-.4z" fill="#909090"/><path d="M262 147l1 1-1-1m27 0l1 1-1-1z" fill="#505050"/><path d="M290 147l1 1-1-1m6 0v2h2c-.5-1.6-.4-1.5-2-2z" fill="#b2b2b2"/><path d="M306 147l1 1-1-1z" fill="#717171"/><path d="M324 147l1 1-1-1z" fill="#909090"/><path d="M367 147l1 1-1-1z" fill="#717171"/><path d="M377 147a7 7 0 0 0 3 2 7 7 0 0 0-3-2z" fill="#b2b2b2"/><path d="M380 147c1.5.7 2.3.8 4 1-1.5-.7-2.3-.8-4-1z" fill="#303030"/><path d="M384 147l1 1-1-1m-337 1l-1 4 4-1a12 12 0 0 0-3-3z" fill="#d0d0d0"/><path d="M54.7 148.3c-.5.5.6.4.6.4.5-.5-.6-.4-.6-.4z" fill="#b2b2b2"/><path d="M56 148l1 1-1-1z" fill="#909090"/><path d="M90 148l1 1-1-1z" fill="#d0d0d0"/><path d="M110 148l1 1-1-1z" fill="#303030"/><path d="M131 148l-1 2c1.3-1 1.4-.7 1-2z" fill="#b2b2b2"/><path d="M147 148v2h2c-.5-1.6-.4-1.5-2-2z" fill="#303030"/><path d="M148 148l1 1-1-1m5.7.3c-.5.5.6.4.6.4.5-.5-.6-.4-.6-.4z" fill="#909090"/><path d="M172 148c1 2 1 2.1 3 3-.9-2.1-.9-2.1-3-3m3.7.3c-.5.5.6.4.6.4.5-.5-.6-.4-.6-.4z" fill="#d0d0d0"/><path d="M189.3 148.7s0 1 .4.6c0 0 0-1-.4-.6z" fill="#909090"/><path d="M190 148a7 7 0 0 1-3 2c2.3 1 4.5 1 7 1a10 10 0 0 0-4-3m16.7.3c-.5.5.6.4.6.4.5-.5-.6-.4-.6-.4z" fill="#d0d0d0"/><path d="M208 148l1 1-1-1z" fill="#909090"/><path d="M211.7 148.3c-.5.5.6.4.6.4.5-.5-.6-.4-.6-.4z" fill="#b2b2b2"/><path d="M221 148l1 1-1-1z" fill="#909090"/><path d="M239 148l1 1-1-1z" fill="#505050"/><path d="M252 148l1 1-1-1m3.7.3c-.5.5.6.4.6.4.5-.5-.6-.4-.6-.4z" fill="#b2b2b2"/><path d="M259.7 148.3c-.5.5.6.4.6.4.5-.5-.6-.4-.6-.4z" fill="#505050"/><path d="M274 148c.5 1.6.4 1.5 2 2-.5-1.6-.4-1.5-2-2z" fill="#b2b2b2"/><path d="M291 148l1 1-1-1m17 0l1 1-1-1z" fill="#717171"/><path d="M315 148a15 15 0 0 0 4 2c-1.3-1.6-1.9-1.7-4-2z" fill="#b2b2b2"/><path d="M319 148c1.5.7 2.3.8 4 1-1.5-.7-2.3-.8-4-1z" fill="#909090"/><path d="M323.3 148.7s0 1 .4.6c0 0 0-1-.4-.6m9.7-.7l1 1-1-1z" fill="#717171"/><path d="M341 148l1 1-1-1z" fill="#b2b2b2"/><path d="M343 148c-.5 1.6-.4 1.5-2 2 1.9.4 2.4-.1 2-2z" fill="#d0d0d0"/><path d="M368 148l1 1-1-1z" fill="#505050"/><path d="M380 148a7 7 0 0 0 3 1 7 7 0 0 0-3-1z" fill="#909090"/><path d="M394 148l1 1-1-1z" fill="#717171"/><path d="M415 148a7 7 0 0 0 3 1 7 7 0 0 0-3-1z" fill="#303030"/><path d="M45 149v3c.7-1.6.7-1.4 0-3z" fill="#505050"/><path d="M52 149l1 1-1-1z" fill="#909090"/><path d="M69 149l1 1-1-1z" fill="#505050"/><path d="M87 149l1 1-1-1z" fill="#d0d0d0"/><path d="M91 149l1 1-1-1z" fill="#505050"/><path d="M94.7 149.3c-.5.5.6.4.6.4.5-.5-.6-.4-.6-.4m4.3-.3a7 7 0 0 0 3 1 7 7 0 0 0-3-1z" fill="#303030"/><path d="M102 149l1 1-1-1z" fill="#909090"/><path d="M103 149l1 1-1-1z" fill="#b2b2b2"/><path d="M104 149l1 1-1-1z" fill="#717171"/><path d="M124 149l1 1-1-1z" fill="#909090"/><path d="M131 149l1 1-1-1z" fill="#303030"/><path d="M161.7 149.3c-.5.5.6.4.6.4.5-.5-.6-.4-.6-.4z" fill="#b2b2b2"/><path d="M163.7 149.3c-.5.5.6.4.6.4.5-.5-.6-.4-.6-.4z" fill="#717171"/><path d="M165 149l-1 2h2c0-1.9.3-1.3-1-2z" fill="#505050"/><path d="M166 149l1 1-1-1z" fill="#909090"/><path d="M167 149l1 2c1.6-.5 1.5-.4 2-2h-3z" fill="#717171"/><path d="M170 149a7 7 0 0 0 3 2c-1-1.8-1-1.6-3-2m11 0a7 7 0 0 0 3 1 7 7 0 0 0-3-1z" fill="#909090"/><path d="M184 149c1.1 1 1.6 1.3 3 2-1-1.8-1-1.6-3-2z" fill="#717171"/><path d="M188 149l1 1-1-1z" fill="#505050"/><path d="M199.7 149.3c-.5.5.6.4.6.4.5-.5-.6-.4-.6-.4z" fill="#b2b2b2"/><path d="M201 149c1.8.8 3 1 5 1-1.8-.8-3-1-5-1z" fill="#717171"/><path d="M207.7 149.3c-.5.5.6.4.6.4.5-.5-.6-.4-.6-.4z" fill="#303030"/><path d="M209 149l1 1-1-1z" fill="#717171"/><path d="M210.7 149.3c-.5.5.6.4.6.4.5-.5-.6-.4-.6-.4z" fill="#505050"/><path d="M246.7 149.3c-.5.5.6.4.6.4.5-.5-.6-.4-.6-.4z" fill="#909090"/><path d="M256 149l1 1-1-1z" fill="#717171"/><path d="M257 149l1 1-1-1m17 0l1 1-1-1z" fill="#505050"/><path d="M293 149a7 7 0 0 0 3 1 7 7 0 0 0-3-1z" fill="#909090"/><path d="M310 149l1 1-1-1z" fill="#303030"/><path d="M311 149c2 1.1 2.7 1.2 5 1-1.8-.8-3-1-5-1z" fill="#717171"/><path d="M316.7 149.3c-.5.5.6.4.6.4.5-.5-.6-.4-.6-.4z" fill="#505050"/><path d="M319 149c1.5.7 2.3.8 4 1-1.5-.7-2.3-.8-4-1z" fill="#f8f8f8"/><path d="M334 149c.5 1.6.4 1.5 2 2-.5-1.6-.4-1.5-2-2z" fill="#505050"/><path d="M335 149c2 1.6 3.2 2 5 0h-5z" fill="#b2b2b2"/><path d="M340.3 149.7s0 1 .4.6c0 0 0-1-.4-.6z" fill="#909090"/><path d="M341.7 149.3c-.5.5.6.4.6.4.5-.5-.6-.4-.6-.4z" fill="#505050"/><path d="M344 149c1.1 1 1.6 1.3 3 2-1-1.8-1-1.6-3-2z" fill="#909090"/><path d="M352 149l1 1-1-1z" fill="#d0d0d0"/><path d="M353 149l1 1-1-1z" fill="#909090"/><path d="M354.7 149.3c-.5.5.6.4.6.4.5-.5-.6-.4-.6-.4z" fill="#d0d0d0"/><path d="M356 149l1 1-1-1z" fill="#909090"/><path d="M358 149l1 1-1-1z" fill="#b2b2b2"/><path d="M359 149l1 1-1-1z" fill="#909090"/><path d="M360.7 149.3c-.5.5.6.4.6.4.5-.5-.6-.4-.6-.4m8.3-.3l1 1-1-1z" fill="#505050"/><path d="M372 149a7 7 0 0 0 3 1 7 7 0 0 0-3-1z" fill="#b2b2b2"/><path d="M392.7 149.3c-.5.5.6.4.6.4.5-.5-.6-.4-.6-.4z" fill="#909090"/><path d="M394 149l1 1-1-1z" fill="#303030"/><path d="M50 150l1 1-1-1m17 0l1 1-1-1z" fill="#505050"/><path d="M85 150a7 7 0 0 0 3 1 7 7 0 0 0-3-1z" fill="#909090"/><path d="M107 150l1 1-1-1z" fill="#717171"/><path d="M108.7 150.3c-.5.5.6.4.6.4.5-.5-.6-.4-.6-.4z" fill="#d0d0d0"/><path d="M129 150l1 1-1-1z" fill="#505050"/><path d="M149.7 150.3c-.5.5.6.4.6.4.5-.5-.6-.4-.6-.4z" fill="#717171"/><path d="M151 150a7 7 0 0 0 3 1 7 7 0 0 0-3-1z" fill="#505050"/><path d="M154 150l1 1-1-1z" fill="#909090"/><path d="M155 150l1 1-1-1z" fill="#d0d0d0"/><path d="M156.7 150.3c-.5.5.6.4.6.4.5-.5-.6-.4-.6-.4z" fill="#505050"/><path d="M169.7 150.3c-.5.5.6.4.6.4.5-.5-.6-.4-.6-.4z" fill="#303030"/><path d="M175 150l1 1-1-1z" fill="#909090"/><path d="M176 150l1 1-1-1z" fill="#505050"/><path d="M178 150l1 1-1-1m3 0c1.8.8 3 1 5 1-1.8-.8-3-1-5-1z" fill="#303030"/><path d="M194.7 150.3c-.5.5.6.4.6.4.5-.5-.6-.4-.6-.4z" fill="#717171"/><path d="M199 150l1 1-1-1z" fill="#303030"/><path d="M249.7 150.3c-.5.5.6.4.6.4.5-.5-.6-.4-.6-.4z" fill="#505050"/><path d="M252 150l1 1-1-1z" fill="#303030"/><path d="M275 150c1.5.7 2.3.8 4 1-1.5-.7-2.3-.8-4-1m36.7.3c-.5.5.6.4.6.4.5-.5-.6-.4-.6-.4z" fill="#505050"/><path d="M314 150c1.5.7 2.3.8 4 1-1.5-.7-2.3-.8-4-1z" fill="#d0d0d0"/><path d="M318.7 150.3c-.5.5.6.4.6.4.5-.5-.6-.4-.6-.4z" fill="#717171"/><path d="M320.7 150.3c-.5.5.6.4.6.4.5-.5-.6-.4-.6-.4z" fill="#303030"/><path d="M343.7 150.3c-.5.5.6.4.6.4.5-.5-.6-.4-.6-.4z" fill="#b2b2b2"/><path d="M345 150l1 1-1-1z" fill="#303030"/><path d="M347.7 150.3c-.5.5.6.4.6.4.5-.5-.6-.4-.6-.4z" fill="#717171"/><path d="M349 150a7 7 0 0 0 3 1 7 7 0 0 0-3-1z" fill="#303030"/><path d="M370 150l1 1-1-1z" fill="#717171"/><path d="M371 150l1 1-1-1z" fill="#909090"/><path d="M372 150a7 7 0 0 0 3 1 7 7 0 0 0-3-1z" fill="#303030"/><path d="M375 150l1 1-1-1z" fill="#909090"/><path d="M383 150c1.5.7 2.3.8 4 1-1.5-.7-2.3-.8-4-1z" fill="#d0d0d0"/><path d="M387.7 150.3c-.5.5.6.4.6.4.5-.5-.6-.4-.6-.4z" fill="#717171"/><path d="M389.7 150.3c-.5.5.6.4.6.4.5-.5-.6-.4-.6-.4z" fill="#303030"/><path d="M48 151l1 1-1-1m18.3.7s0 1 .4.6c0 0 0-1-.4-.6z" fill="#505050"/><path d="M79.7 151.3c-.5.5.6.4.6.4.5-.5-.6-.4-.6-.4z" fill="#909090"/><path d="M81 151a7 7 0 0 0 3 1 7 7 0 0 0-3-1z" fill="#717171"/><path d="M124 151a7 7 0 0 0 3 1 7 7 0 0 0-3-1z" fill="#b2b2b2"/><path d="M127 151l1 1-1-1z" fill="#303030"/><path d="M336 151l1 1-1-1z" fill="#717171"/><path d="M337 151l1 1-1-1z" fill="#303030"/><path d="M377 151l1 1-1-1z" fill="#717171"/><path d="M378 151c2.3 1 4.5 1 7 1-2.3-1-4.5-1-7-1z" fill="#909090"/><path d="M385 151l1 1-1-1m-338 1l1 1-1-1z" fill="#303030"/><path d="M71 152v2h2c-.5-1.6-.4-1.5-2-2z" fill="#909090"/><path d="M73 152a7 7 0 0 0 3 1 7 7 0 0 0-3-1z" fill="#717171"/><path d="M76.7 152.3c-.5.5.6.4.6.4.5-.5-.6-.4-.6-.4z" fill="#303030"/><path d="M67 153l1 2c1.6-.5 1.5-.4 2-2h-3z" fill="#d0d0d0"/><path d="M67 154l1 1-1-1z" fill="#909090"/><path d="M70 154l1 1-1-1z" fill="#b2b2b2"/><path d="M71 154l1 1-1-1z" fill="#505050"/><path d="M69 155l1 1-1-1z" fill="#717171"/></svg>